<?xml version="1.0" encoding="UTF-8" standalone="no"?>
<!DOCTYPE svg PUBLIC "-//W3C//DTD SVG 1.1//EN"
 "http://www.w3.org/Graphics/SVG/1.1/DTD/svg11.dtd">
<!-- Generated by graphviz version 2.43.0 (0)
 -->
<!-- Title: domain::Graph::getEdgesFrom Pages: 1 -->
<svg width="608pt" height="121pt"
 viewBox="0.00 0.00 608.00 120.50" xmlns="http://www.w3.org/2000/svg" xmlns:xlink="http://www.w3.org/1999/xlink">
<g id="graph0" class="graph" transform="scale(1 1) rotate(0) translate(4 116.5)">
<title>domain::Graph::getEdgesFrom</title>
<!-- Node1 -->
<g id="Node000001" class="node">
<title>Node1</title>
<g id="a_Node000001"><a xlink:title="Возвращает все рёбра исходящие из узла.">
<polygon fill="#999999" stroke="#666666" points="600,-37 436,-37 436,-18 600,-18 600,-37"/>
<text text-anchor="middle" x="518" y="-25" font-family="Helvetica,sans-Serif" font-size="10.00">domain::Graph::getEdgesFrom</text>
</a>
</g>
</g>
<!-- Node2 -->
<g id="Node000002" class="node">
<title>Node2</title>
<g id="a_Node000002"><a xlink:href="namespaceapplication.html#aac6f2a30b5642422e7440b793eb3d211" target="_top" xlink:title="Ищет маршрут между двумя узлами с помощью алгоритма A*.">
<polygon fill="white" stroke="#666666" points="400,-59 277,-59 277,-40 400,-40 400,-59"/>
<text text-anchor="middle" x="338.5" y="-47" font-family="Helvetica,sans-Serif" font-size="10.00">application::findRoute</text>
</a>
</g>
</g>
<!-- Node1&#45;&gt;Node2 -->
<g id="edge1_Node000001_Node000002" class="edge">
<title>Node1&#45;&gt;Node2</title>
<g id="a_edge1_Node000001_Node000002"><a xlink:title=" ">
<path fill="none" stroke="#63b8ff" d="M430.08,-38.27C419.95,-39.53 409.79,-40.79 400.13,-41.99"/>
<polygon fill="#63b8ff" stroke="#63b8ff" points="430.68,-41.73 440.18,-37.02 429.82,-34.78 430.68,-41.73"/>
</a>
</g>
</g>
<!-- Node6 -->
<g id="Node000006" class="node">
<title>Node6</title>
<g id="a_Node000006"><a xlink:href="main_8cpp.html#acf3167c65c5c98221403e5c226c7c490" target="_top" xlink:title=" ">
<polygon fill="white" stroke="#666666" points="372.5,-19 304.5,-19 304.5,0 372.5,0 372.5,-19"/>
<text text-anchor="middle" x="338.5" y="-7" font-family="Helvetica,sans-Serif" font-size="10.00">printRoute</text>
</a>
</g>
</g>
<!-- Node1&#45;&gt;Node6 -->
<g id="edge5_Node000001_Node000006" class="edge">
<title>Node1&#45;&gt;Node6</title>
<g id="a_edge5_Node000001_Node000006"><a xlink:title=" ">
<path fill="none" stroke="#63b8ff" d="M425.58,-18.23C406.64,-16.31 387.87,-14.41 372.72,-12.87"/>
<polygon fill="#63b8ff" stroke="#63b8ff" points="425.48,-21.74 435.78,-19.26 426.19,-14.77 425.48,-21.74"/>
</a>
</g>
</g>
<!-- Node3 -->
<g id="Node000003" class="node">
<title>Node3</title>
<g id="a_Node000003"><a xlink:href="classapplication_1_1NavigationFacade.html#a07c6ac701bde1d2f86028b1b59deae5c" target="_top" xlink:title="Найти маршруты всеми стратегиями.">
<polygon fill="white" stroke="#666666" points="241,-112.5 77,-112.5 77,-82.5 241,-82.5 241,-112.5"/>
<text text-anchor="start" x="85" y="-100.5" font-family="Helvetica,sans-Serif" font-size="10.00">application::NavigationFacade</text>
<text text-anchor="middle" x="159" y="-89.5" font-family="Helvetica,sans-Serif" font-size="10.00">::findAllRoutes</text>
</a>
</g>
</g>
<!-- Node2&#45;&gt;Node3 -->
<g id="edge2_Node000002_Node000003" class="edge">
<title>Node2&#45;&gt;Node3</title>
<g id="a_edge2_Node000002_Node000003"><a xlink:title=" ">
<path fill="none" stroke="#63b8ff" d="M292.06,-61.79C268.79,-68.08 240.28,-75.79 215.7,-82.44"/>
<polygon fill="#63b8ff" stroke="#63b8ff" points="293.27,-65.09 302.01,-59.1 291.44,-58.33 293.27,-65.09"/>
</a>
</g>
</g>
<!-- Node4 -->
<g id="Node000004" class="node">
<title>Node4</title>
<g id="a_Node000004"><a xlink:href="classapplication_1_1NavigationFacade.html#a85ff8bf944e4b3b05f759dcd61551498" target="_top" xlink:title="Найти маршрут между двумя узлами.">
<polygon fill="white" stroke="#666666" points="241,-64.5 77,-64.5 77,-34.5 241,-34.5 241,-64.5"/>
<text text-anchor="start" x="85" y="-52.5" font-family="Helvetica,sans-Serif" font-size="10.00">application::NavigationFacade</text>
<text text-anchor="middle" x="159" y="-41.5" font-family="Helvetica,sans-Serif" font-size="10.00">::findRoute</text>
</a>
</g>
</g>
<!-- Node2&#45;&gt;Node4 -->
<g id="edge3_Node000002_Node000004" class="edge">
<title>Node2&#45;&gt;Node4</title>
<g id="a_edge3_Node000002_Node000004"><a xlink:title=" ">
<path fill="none" stroke="#63b8ff" d="M266.74,-49.5C258.29,-49.5 249.61,-49.5 241.03,-49.5"/>
<polygon fill="#63b8ff" stroke="#63b8ff" points="266.91,-53 276.91,-49.5 266.91,-46 266.91,-53"/>
</a>
</g>
</g>
<!-- Node5 -->
<g id="Node000005" class="node">
<title>Node5</title>
<g id="a_Node000005"><a xlink:href="main_8cpp.html#a0ddf1224851353fc92bfbff6f499fa97" target="_top" xlink:title=" ">
<polygon fill="white" stroke="#666666" points="41,-37 0,-37 0,-18 41,-18 41,-37"/>
<text text-anchor="middle" x="20.5" y="-25" font-family="Helvetica,sans-Serif" font-size="10.00">main</text>
</a>
</g>
</g>
<!-- Node4&#45;&gt;Node5 -->
<g id="edge4_Node000004_Node000005" class="edge">
<title>Node4&#45;&gt;Node5</title>
<g id="a_edge4_Node000004_Node000005"><a xlink:title=" ">
<path fill="none" stroke="#63b8ff" d="M66.55,-34.76C57.09,-33.24 48.3,-31.82 41.04,-30.65"/>
<polygon fill="#63b8ff" stroke="#63b8ff" points="66.2,-38.25 76.63,-36.38 67.31,-31.34 66.2,-38.25"/>
</a>
</g>
</g>
<!-- Node6&#45;&gt;Node5 -->
<g id="edge6_Node000006_Node000005" class="edge">
<title>Node6&#45;&gt;Node5</title>
<g id="a_edge6_Node000006_Node000005"><a xlink:title=" ">
<path fill="none" stroke="#63b8ff" d="M294.1,-11.97C224.58,-15.93 91.01,-23.54 41.02,-26.39"/>
<polygon fill="#63b8ff" stroke="#63b8ff" points="294.49,-15.46 304.28,-11.39 294.1,-8.47 294.49,-15.46"/>
</a>
</g>
</g>
</g>
</svg>
