<?xml version="1.0" encoding="UTF-8" standalone="no"?>
<!DOCTYPE svg PUBLIC "-//W3C//DTD SVG 1.1//EN"
 "http://www.w3.org/Graphics/SVG/1.1/DTD/svg11.dtd">
<!-- Generated by graphviz version 2.43.0 (0)
 -->
<!-- Title: domain::Graph::getAllEdges Pages: 1 -->
<svg width="503pt" height="27pt"
 viewBox="0.00 0.00 503.00 27.00" xmlns="http://www.w3.org/2000/svg" xmlns:xlink="http://www.w3.org/1999/xlink">
<g id="graph0" class="graph" transform="scale(1 1) rotate(0) translate(4 23)">
<title>domain::Graph::getAllEdges</title>
<!-- Node1 -->
<g id="Node000001" class="node">
<title>Node1</title>
<g id="a_Node000001"><a xlink:title="Возвращает все рёбра графа (для UI/Facade).">
<polygon fill="#999999" stroke="#666666" points="495,-19 343,-19 343,0 495,0 495,-19"/>
<text text-anchor="middle" x="419" y="-7" font-family="Helvetica,sans-Serif" font-size="10.00">domain::Graph::getAllEdges</text>
</a>
</g>
</g>
<!-- Node2 -->
<g id="Node000002" class="node">
<title>Node2</title>
<g id="a_Node000002"><a xlink:href="classMapScene.html#a1ba14d37727b3e59755967464c9a44e5" target="_top" xlink:title="Загружает граф в сцену, создавая графические элементы.">
<polygon fill="white" stroke="#666666" points="307,-19 184,-19 184,0 307,0 307,-19"/>
<text text-anchor="middle" x="245.5" y="-7" font-family="Helvetica,sans-Serif" font-size="10.00">MapScene::loadGraph</text>
</a>
</g>
</g>
<!-- Node1&#45;&gt;Node2 -->
<g id="edge1_Node000001_Node000002" class="edge">
<title>Node1&#45;&gt;Node2</title>
<g id="a_edge1_Node000001_Node000002"><a xlink:title=" ">
<path fill="none" stroke="#63b8ff" d="M332.71,-9.5C324.11,-9.5 315.51,-9.5 307.25,-9.5"/>
<polygon fill="#63b8ff" stroke="#63b8ff" points="332.78,-13 342.78,-9.5 332.78,-6 332.78,-13"/>
</a>
</g>
</g>
<!-- Node3 -->
<g id="Node000003" class="node">
<title>Node3</title>
<g id="a_Node000003"><a xlink:href="classMainWindow.html#a4f357ab64ee2507b7e66b10258ad0714" target="_top" xlink:title="Конструктор с готовым фасадом навигации.">
<polygon fill="white" stroke="#666666" points="148,-19 0,-19 0,0 148,0 148,-19"/>
<text text-anchor="middle" x="74" y="-7" font-family="Helvetica,sans-Serif" font-size="10.00">MainWindow::MainWindow</text>
</a>
</g>
</g>
<!-- Node2&#45;&gt;Node3 -->
<g id="edge2_Node000002_Node000003" class="edge">
<title>Node2&#45;&gt;Node3</title>
<g id="a_edge2_Node000002_Node000003"><a xlink:title=" ">
<path fill="none" stroke="#63b8ff" d="M173.6,-9.5C165.14,-9.5 156.51,-9.5 148.03,-9.5"/>
<polygon fill="#63b8ff" stroke="#63b8ff" points="173.79,-13 183.79,-9.5 173.79,-6 173.79,-13"/>
</a>
</g>
</g>
</g>
</svg>
