<?xml version="1.0" encoding="UTF-8" standalone="no"?>
<!DOCTYPE svg PUBLIC "-//W3C//DTD SVG 1.1//EN"
 "http://www.w3.org/Graphics/SVG/1.1/DTD/svg11.dtd">
<!-- Generated by graphviz version 2.43.0 (0)
 -->
<!-- Title: application::IRouteStrategy::create_cost Pages: 1 -->
<svg width="358pt" height="182pt"
 viewBox="0.00 0.00 358.00 182.00" xmlns="http://www.w3.org/2000/svg" xmlns:xlink="http://www.w3.org/1999/xlink">
<g id="graph0" class="graph" transform="scale(1 1) rotate(0) translate(4 178)">
<title>application::IRouteStrategy::create_cost</title>
<!-- Node1 -->
<g id="Node000001" class="node">
<title>Node1</title>
<g id="a_Node000001"><a xlink:title="Создает объект стоимости для конкретного ребра и контекста.">
<polygon fill="#999999" stroke="#666666" points="350,-102 201,-102 201,-72 350,-72 350,-102"/>
<text text-anchor="start" x="209" y="-90" font-family="Helvetica,sans-Serif" font-size="10.00">application::IRouteStrategy</text>
<text text-anchor="middle" x="275.5" y="-79" font-family="Helvetica,sans-Serif" font-size="10.00">::create_cost</text>
</a>
</g>
</g>
<!-- Node2 -->
<g id="Node000002" class="node">
<title>Node2</title>
<g id="a_Node000002"><a xlink:href="classdomain_1_1StaticLogic.html#a232f3d9fab933b35520cf9f2a002014c" target="_top" xlink:title="Рассчитывает время прибытия и стоимость прохождения ребра. Если ребро недоступно в данный момент,...">
<polygon fill="white" stroke="#666666" points="139,-174 26,-174 26,-144 139,-144 139,-174"/>
<text text-anchor="start" x="34" y="-162" font-family="Helvetica,sans-Serif" font-size="10.00">domain::StaticLogic</text>
<text text-anchor="middle" x="82.5" y="-151" font-family="Helvetica,sans-Serif" font-size="10.00">::calculate</text>
</a>
</g>
</g>
<!-- Node1&#45;&gt;Node2 -->
<g id="edge1_Node000001_Node000002" class="edge">
<title>Node1&#45;&gt;Node2</title>
<g id="a_edge1_Node000001_Node000002"><a xlink:title=" ">
<path fill="none" stroke="#63b8ff" d="M233.55,-106.43C213.19,-115.7 188.06,-126.59 165,-135 156.41,-138.13 147.2,-141.16 138.17,-143.94"/>
<polygon fill="#63b8ff" stroke="#63b8ff" points="235.21,-109.51 242.83,-102.16 232.28,-103.15 235.21,-109.51"/>
</a>
</g>
</g>
<!-- Node3 -->
<g id="Node000003" class="node">
<title>Node3</title>
<g id="a_Node000003"><a xlink:href="classdomain_1_1TimeWindowLogic.html#a7811be478d8b22bdd6017ed313d79752" target="_top" xlink:title="Рассчитывает время прибытия и стоимость прохождения ребра. Если ребро недоступно в данный момент,...">
<polygon fill="white" stroke="#666666" points="157,-126 8,-126 8,-96 157,-96 157,-126"/>
<text text-anchor="start" x="16" y="-114" font-family="Helvetica,sans-Serif" font-size="10.00">domain::TimeWindowLogic</text>
<text text-anchor="middle" x="82.5" y="-103" font-family="Helvetica,sans-Serif" font-size="10.00">::calculate</text>
</a>
</g>
</g>
<!-- Node1&#45;&gt;Node3 -->
<g id="edge2_Node000001_Node000003" class="edge">
<title>Node1&#45;&gt;Node3</title>
<g id="a_edge2_Node000001_Node000003"><a xlink:title=" ">
<path fill="none" stroke="#63b8ff" d="M190.71,-97.53C179.49,-98.94 168.06,-100.38 157.03,-101.76"/>
<polygon fill="#63b8ff" stroke="#63b8ff" points="191.44,-100.96 200.93,-96.24 190.57,-94.02 191.44,-100.96"/>
</a>
</g>
</g>
<!-- Node4 -->
<g id="Node000004" class="node">
<title>Node4</title>
<g id="a_Node000004"><a xlink:href="classdomain_1_1FrequencyBasedLogic.html#ad965667637828a9a0da4ceeedda1f6af" target="_top" xlink:title="Рассчитывает время прибытия и стоимость прохождения ребра. Если ребро недоступно в данный момент,...">
<polygon fill="white" stroke="#666666" points="165,-78 0,-78 0,-48 165,-48 165,-78"/>
<text text-anchor="start" x="8" y="-66" font-family="Helvetica,sans-Serif" font-size="10.00">domain::FrequencyBasedLogic</text>
<text text-anchor="middle" x="82.5" y="-55" font-family="Helvetica,sans-Serif" font-size="10.00">::calculate</text>
</a>
</g>
</g>
<!-- Node1&#45;&gt;Node4 -->
<g id="edge3_Node000001_Node000004" class="edge">
<title>Node1&#45;&gt;Node4</title>
<g id="a_edge3_Node000001_Node000004"><a xlink:title=" ">
<path fill="none" stroke="#63b8ff" d="M190.99,-76.51C182.46,-75.44 173.81,-74.35 165.3,-73.28"/>
<polygon fill="#63b8ff" stroke="#63b8ff" points="190.57,-79.98 200.93,-77.76 191.44,-73.04 190.57,-79.98"/>
</a>
</g>
</g>
<!-- Node5 -->
<g id="Node000005" class="node">
<title>Node5</title>
<g id="a_Node000005"><a xlink:href="classdomain_1_1ScheduledLogic.html#a52b7eabc1ad4973f1262c73714c571a9" target="_top" xlink:title="Рассчитывает время прибытия и стоимость прохождения ребра. Если ребро недоступно в данный момент,...">
<polygon fill="white" stroke="#666666" points="150,-30 15,-30 15,0 150,0 150,-30"/>
<text text-anchor="start" x="23" y="-18" font-family="Helvetica,sans-Serif" font-size="10.00">domain::ScheduledLogic</text>
<text text-anchor="middle" x="82.5" y="-7" font-family="Helvetica,sans-Serif" font-size="10.00">::calculate</text>
</a>
</g>
</g>
<!-- Node1&#45;&gt;Node5 -->
<g id="edge4_Node000001_Node000005" class="edge">
<title>Node1&#45;&gt;Node5</title>
<g id="a_edge4_Node000001_Node000005"><a xlink:title=" ">
<path fill="none" stroke="#63b8ff" d="M233.55,-67.57C213.19,-58.3 188.06,-47.41 165,-39 156.41,-35.87 147.2,-32.84 138.17,-30.06"/>
<polygon fill="#63b8ff" stroke="#63b8ff" points="232.28,-70.85 242.83,-71.84 235.21,-64.49 232.28,-70.85"/>
</a>
</g>
</g>
</g>
</svg>
