<?xml version="1.0" encoding="UTF-8" standalone="no"?>
<!DOCTYPE svg PUBLIC "-//W3C//DTD SVG 1.1//EN"
 "http://www.w3.org/Graphics/SVG/1.1/DTD/svg11.dtd">
<!-- Generated by graphviz version 2.43.0 (0)
 -->
<!-- Title: domain::Graph::getNode Pages: 1 -->
<!--zoomable 200 -->

<svg id="main" version="1.1" xmlns="http://www.w3.org/2000/svg" xmlns:xlink="http://www.w3.org/1999/xlink" xml:space="preserve" onload="init(evt)">
<style type="text/css"><![CDATA[
.node, .edge {opacity: 0.7;}
.node.selected, .edge.selected {opacity: 1;}
.edge:hover path { stroke: red; }
.edge:hover polygon { stroke: red; fill: red; }
]]></style>

<defs>
  <circle id="rim" cx="0" cy="0" r="7"/>
  <circle id="rim2" cx="0" cy="0" r="3.5"/>
  <g id="zoomPlus">
    <use xlink:href="#rim" fill="#404040"><set attributeName="fill" to="#808080" begin="zoomplus.mouseover" end="zoomplus.mouseout"/></use>
    <path d="M-4,0h8M0,-4v8" fill="none" stroke="white" stroke-width="1.5" pointer-events="none"/>
  </g>
  <g id="zoomMin">
    <use xlink:href="#rim" fill="#404040"><set attributeName="fill" to="#808080" begin="zoomminus.mouseover" end="zoomminus.mouseout"/></use>
    <path d="M-4,0h8" fill="none" stroke="white" stroke-width="1.5" pointer-events="none"/>
  </g>
  <g id="arrowUp" transform="translate(30 24)">
    <use xlink:href="#rim"/>
    <path pointer-events="none" fill="none" stroke="white" stroke-width="1.5" d="M0,-3.0v7 M-2.5,-0.5L0,-3.0L2.5,-0.5"/>
  </g>
  <g id="arrowRight" transform="rotate(90) translate(36 -43)">
    <use xlink:href="#rim"/>
    <path pointer-events="none" fill="none" stroke="white" stroke-width="1.5" d="M0,-3.0v7 M-2.5,-0.5L0,-3.0L2.5,-0.5"/>
  </g>
  <g id="arrowDown" transform="rotate(180) translate(-30 -48)">
    <use xlink:href="#rim"/>
    <path pointer-events="none" fill="none" stroke="white" stroke-width="1.5" d="M0,-3.0v7 M-2.5,-0.5L0,-3.0L2.5,-0.5"/>
  </g>
  <g id="arrowLeft" transform="rotate(270) translate(-36 17)">
    <use xlink:href="#rim"/>
    <path pointer-events="none" fill="none" stroke="white" stroke-width="1.5" d="M0,-3.0v7 M-2.5,-0.5L0,-3.0L2.5,-0.5"/>
  </g>
  <g id="resetDef">
    <use xlink:href="#rim2" fill="#404040"><set attributeName="fill" to="#808080" begin="reset.mouseover" end="reset.mouseout"/></use>
  </g>
</defs>
<script type="application/ecmascript">
var viewWidth = 580;
var viewHeight = 200;
var sectionId = 'dynsection-5';
</script>
<script type="application/ecmascript" xlink:href="svg.min.js"/>
<svg id="graph" class="graph">
<g id="viewport">
<title>domain::Graph::getNode</title>
<!-- Node1 -->
<g id="Node000001" class="node">
<title>Node1</title>
<g id="a_Node000001"><a xlink:title="Возвращает узел по ID.">
<polygon fill="#999999" stroke="#666666" points="572,-76 436,-76 436,-57 572,-57 572,-76"/>
<text text-anchor="middle" x="504" y="-64" font-family="Helvetica,sans-Serif" font-size="10.00">domain::Graph::getNode</text>
</a>
</g>
</g>
<!-- Node2 -->
<g id="Node000002" class="node">
<title>Node2</title>
<g id="a_Node000002"><a xlink:href="namespaceapplication.html#aac6f2a30b5642422e7440b793eb3d211" target="_top" xlink:title="Ищет маршрут между двумя узлами с помощью алгоритма A*.">
<polygon fill="white" stroke="#666666" points="400,-138 277,-138 277,-119 400,-119 400,-138"/>
<text text-anchor="middle" x="338.5" y="-126" font-family="Helvetica,sans-Serif" font-size="10.00">application::findRoute</text>
</a>
</g>
</g>
<!-- Node1&#45;&gt;Node2 -->
<g id="edge1_Node000001_Node000002" class="edge">
<title>Node1&#45;&gt;Node2</title>
<g id="a_edge1_Node000001_Node000002"><a xlink:title=" ">
<path fill="none" stroke="#63b8ff" d="M468.25,-79.68C437.2,-91.45 392.45,-108.42 364.72,-118.94"/>
<polygon fill="#63b8ff" stroke="#63b8ff" points="469.7,-82.87 477.81,-76.05 467.22,-76.32 469.7,-82.87"/>
</a>
</g>
</g>
<!-- Node6 -->
<g id="Node000006" class="node">
<title>Node6</title>
<g id="a_Node000006"><a xlink:href="classMapScene.html#a1ba14d37727b3e59755967464c9a44e5" target="_top" xlink:title="Загружает граф в сцену, создавая графические элементы.">
<polygon fill="white" stroke="#666666" points="400,-95 277,-95 277,-76 400,-76 400,-95"/>
<text text-anchor="middle" x="338.5" y="-83" font-family="Helvetica,sans-Serif" font-size="10.00">MapScene::loadGraph</text>
</a>
</g>
</g>
<!-- Node1&#45;&gt;Node6 -->
<g id="edge5_Node000001_Node000006" class="edge">
<title>Node1&#45;&gt;Node6</title>
<g id="a_edge5_Node000001_Node000006"><a xlink:title=" ">
<path fill="none" stroke="#63b8ff" d="M425.61,-75.49C417.09,-76.48 408.52,-77.48 400.25,-78.44"/>
<polygon fill="#63b8ff" stroke="#63b8ff" points="426.03,-78.97 435.55,-74.34 425.22,-72.02 426.03,-78.97"/>
</a>
</g>
</g>
<!-- Node8 -->
<g id="Node000008" class="node">
<title>Node8</title>
<g id="a_Node000008"><a xlink:href="main_8cpp.html#acf3167c65c5c98221403e5c226c7c490" target="_top" xlink:title=" ">
<polygon fill="white" stroke="#666666" points="372.5,-57 304.5,-57 304.5,-38 372.5,-38 372.5,-57"/>
<text text-anchor="middle" x="338.5" y="-45" font-family="Helvetica,sans-Serif" font-size="10.00">printRoute</text>
</a>
</g>
</g>
<!-- Node1&#45;&gt;Node8 -->
<g id="edge7_Node000001_Node000008" class="edge">
<title>Node1&#45;&gt;Node8</title>
<g id="a_edge7_Node000001_Node000008"><a xlink:title=" ">
<path fill="none" stroke="#63b8ff" d="M425.59,-57.5C407.02,-55.35 388.14,-53.15 372.82,-51.37"/>
<polygon fill="#63b8ff" stroke="#63b8ff" points="425.22,-60.98 435.55,-58.66 426.03,-54.03 425.22,-60.98"/>
</a>
</g>
</g>
<!-- Node9 -->
<g id="Node000009" class="node">
<title>Node9</title>
<g id="a_Node000009"><a xlink:href="classRouteItem.html#a8075879d11fd7023115174b9d387ab78" target="_top" xlink:title="Устанавливает маршрут для отображения.">
<polygon fill="white" stroke="#666666" points="397,-20 280,-20 280,-1 397,-1 397,-20"/>
<text text-anchor="middle" x="338.5" y="-8" font-family="Helvetica,sans-Serif" font-size="10.00">RouteItem::setRoute</text>
</a>
</g>
</g>
<!-- Node1&#45;&gt;Node9 -->
<g id="edge9_Node000001_Node000009" class="edge">
<title>Node1&#45;&gt;Node9</title>
<g id="a_edge9_Node000001_Node000009"><a xlink:title=" ">
<path fill="none" stroke="#63b8ff" d="M469.01,-53.34C449.03,-45.75 423.21,-36.22 400,-28.5 391.27,-25.59 381.75,-22.66 372.91,-20.02"/>
<polygon fill="#63b8ff" stroke="#63b8ff" points="468.01,-56.7 478.6,-56.99 470.5,-50.16 468.01,-56.7"/>
</a>
</g>
</g>
<!-- Node3 -->
<g id="Node000003" class="node">
<title>Node3</title>
<g id="a_Node000003"><a xlink:href="classapplication_1_1NavigationFacade.html#a07c6ac701bde1d2f86028b1b59deae5c" target="_top" xlink:title="Найти маршруты всеми стратегиями.">
<polygon fill="white" stroke="#666666" points="241,-191.5 77,-191.5 77,-161.5 241,-161.5 241,-191.5"/>
<text text-anchor="start" x="85" y="-179.5" font-family="Helvetica,sans-Serif" font-size="10.00">application::NavigationFacade</text>
<text text-anchor="middle" x="159" y="-168.5" font-family="Helvetica,sans-Serif" font-size="10.00">::findAllRoutes</text>
</a>
</g>
</g>
<!-- Node2&#45;&gt;Node3 -->
<g id="edge2_Node000002_Node000003" class="edge">
<title>Node2&#45;&gt;Node3</title>
<g id="a_edge2_Node000002_Node000003"><a xlink:title=" ">
<path fill="none" stroke="#63b8ff" d="M292.06,-140.79C268.79,-147.08 240.28,-154.79 215.7,-161.44"/>
<polygon fill="#63b8ff" stroke="#63b8ff" points="293.27,-144.09 302.01,-138.1 291.44,-137.33 293.27,-144.09"/>
</a>
</g>
</g>
<!-- Node4 -->
<g id="Node000004" class="node">
<title>Node4</title>
<g id="a_Node000004"><a xlink:href="classapplication_1_1NavigationFacade.html#a85ff8bf944e4b3b05f759dcd61551498" target="_top" xlink:title="Найти маршрут между двумя узлами.">
<polygon fill="white" stroke="#666666" points="241,-143.5 77,-143.5 77,-113.5 241,-113.5 241,-143.5"/>
<text text-anchor="start" x="85" y="-131.5" font-family="Helvetica,sans-Serif" font-size="10.00">application::NavigationFacade</text>
<text text-anchor="middle" x="159" y="-120.5" font-family="Helvetica,sans-Serif" font-size="10.00">::findRoute</text>
</a>
</g>
</g>
<!-- Node2&#45;&gt;Node4 -->
<g id="edge3_Node000002_Node000004" class="edge">
<title>Node2&#45;&gt;Node4</title>
<g id="a_edge3_Node000002_Node000004"><a xlink:title=" ">
<path fill="none" stroke="#63b8ff" d="M266.74,-128.5C258.29,-128.5 249.61,-128.5 241.03,-128.5"/>
<polygon fill="#63b8ff" stroke="#63b8ff" points="266.91,-132 276.91,-128.5 266.91,-125 266.91,-132"/>
</a>
</g>
</g>
<!-- Node5 -->
<g id="Node000005" class="node">
<title>Node5</title>
<g id="a_Node000005"><a xlink:href="main_8cpp.html#a0ddf1224851353fc92bfbff6f499fa97" target="_top" xlink:title=" ">
<polygon fill="white" stroke="#666666" points="41,-97 0,-97 0,-78 41,-78 41,-97"/>
<text text-anchor="middle" x="20.5" y="-85" font-family="Helvetica,sans-Serif" font-size="10.00">main</text>
</a>
</g>
</g>
<!-- Node4&#45;&gt;Node5 -->
<g id="edge4_Node000004_Node000005" class="edge">
<title>Node4&#45;&gt;Node5</title>
<g id="a_edge4_Node000004_Node000005"><a xlink:title=" ">
<path fill="none" stroke="#63b8ff" d="M97.1,-110.52C90.32,-108.5 83.51,-106.46 77,-104.5 65.04,-100.9 51.64,-96.79 41.01,-93.52"/>
<polygon fill="#63b8ff" stroke="#63b8ff" points="96.41,-113.97 106.99,-113.46 98.41,-107.26 96.41,-113.97"/>
</a>
</g>
</g>
<!-- Node7 -->
<g id="Node000007" class="node">
<title>Node7</title>
<g id="a_Node000007"><a xlink:href="classMainWindow.html#a4f357ab64ee2507b7e66b10258ad0714" target="_top" xlink:title="Конструктор с готовым фасадом навигации.">
<polygon fill="white" stroke="#666666" points="233,-95 85,-95 85,-76 233,-76 233,-95"/>
<text text-anchor="middle" x="159" y="-83" font-family="Helvetica,sans-Serif" font-size="10.00">MainWindow::MainWindow</text>
</a>
</g>
</g>
<!-- Node6&#45;&gt;Node7 -->
<g id="edge6_Node000006_Node000007" class="edge">
<title>Node6&#45;&gt;Node7</title>
<g id="a_edge6_Node000006_Node000007"><a xlink:title=" ">
<path fill="none" stroke="#63b8ff" d="M266.87,-85.5C255.8,-85.5 244.33,-85.5 233.2,-85.5"/>
<polygon fill="#63b8ff" stroke="#63b8ff" points="266.91,-89 276.91,-85.5 266.91,-82 266.91,-89"/>
</a>
</g>
</g>
<!-- Node8&#45;&gt;Node5 -->
<g id="edge8_Node000008_Node000005" class="edge">
<title>Node8&#45;&gt;Node5</title>
<g id="a_edge8_Node000008_Node000005"><a xlink:title=" ">
<path fill="none" stroke="#63b8ff" d="M293.93,-46.87C241.74,-46.98 151.98,-49.95 77,-66.5 64.73,-69.21 51.55,-74.11 41.11,-78.49"/>
<polygon fill="#63b8ff" stroke="#63b8ff" points="294.16,-50.37 304.16,-46.88 294.17,-43.37 294.16,-50.37"/>
</a>
</g>
</g>
<!-- Node10 -->
<g id="Node000010" class="node">
<title>Node10</title>
<g id="a_Node000010"><a xlink:href="classMapScene.html#ab9e4a1f31618f320bece26cdac7bad5c" target="_top" xlink:title="Подсвечивает маршрут на карте.">
<polygon fill="white" stroke="#666666" points="231,-19 87,-19 87,0 231,0 231,-19"/>
<text text-anchor="middle" x="159" y="-7" font-family="Helvetica,sans-Serif" font-size="10.00">MapScene::highlightRoute</text>
</a>
</g>
</g>
<!-- Node9&#45;&gt;Node10 -->
<g id="edge10_Node000009_Node000010" class="edge">
<title>Node9&#45;&gt;Node10</title>
<g id="a_edge10_Node000009_Node000010"><a xlink:title=" ">
<path fill="none" stroke="#63b8ff" d="M269.52,-10.12C257.01,-10.05 243.92,-9.97 231.31,-9.9"/>
<polygon fill="#63b8ff" stroke="#63b8ff" points="269.85,-13.62 279.87,-10.18 269.89,-6.62 269.85,-13.62"/>
</a>
</g>
</g>
</g>
</svg>

<g id="navigator" transform="translate(0 0)" fill="#404254">
  <rect fill="#f2f5e9" fill-opacity="0.5" stroke="#606060" stroke-width=".5" x="0" y="0" width="60" height="60"/>
  <use id="zoomplus" xlink:href="#zoomPlus" x="17" y="9" onmousedown="handleZoom(evt,'in')"/>
  <use id="zoomminus" xlink:href="#zoomMin" x="42" y="9" onmousedown="handleZoom(evt,'out')"/>
  <use id="reset" xlink:href="#resetDef" x="30" y="36" onmousedown="handleReset()"/>
   <use id="arrowup" xlink:href="#arrowUp" x="0" y="0" onmousedown="handlePan(0,-1)"/>
  <use id="arrowright" xlink:href="#arrowRight" x="0" y="0" onmousedown="handlePan(1,0)"/>
  <use id="arrowdown" xlink:href="#arrowDown" x="0" y="0" onmousedown="handlePan(0,1)"/>
  <use id="arrowleft" xlink:href="#arrowLeft" x="0" y="0" onmousedown="handlePan(-1,0)"/>
</g>
<svg viewBox="0 0 15 15" width="100%" height="30px" preserveAspectRatio="xMaxYMin meet">
 <g id="arrow_out" transform="scale(0.3 0.3)">
  <a xlink:href="classdomain_1_1Graph_a17dc3667b7246c30e87ac24a5eb1c0ed_icgraph_org.svg" target="_base">
   <rect id="button" ry="5" rx="5" y="6" x="6" height="38" width="38"
        fill="#f2f5e9" fill-opacity="0.5" stroke="#606060" stroke-width="1.0"/>
   <path id="arrow"
     d="M 11.500037,31.436501 C 11.940474,20.09759 22.043105,11.32322 32.158766,21.979434 L 37.068811,17.246167 C 37.068811,17.246167 37.088388,32 37.088388,32 L 22.160133,31.978069 C 22.160133,31.978069 26.997745,27.140456 26.997745,27.140456 C 18.528582,18.264221 13.291696,25.230495 11.500037,31.436501 z"
     style="fill:#404040;"/>
  </a>
 </g>
</svg>

<style type='text/css'>
<![CDATA[
[data-mouse-over-selected='false'] { opacity: 0.7; }
[data-mouse-over-selected='true']  { opacity: 1.0; }
]]>
</style>
<script type="application/ecmascript"><![CDATA[
document.addEventListener('DOMContentLoaded', (event) => {
  highlightEdges();
  highlightAdjacentNodes();
});
]]></script>
</svg>
