<?xml version="1.0" encoding="UTF-8" standalone="no"?>
<!DOCTYPE svg PUBLIC "-//W3C//DTD SVG 1.1//EN"
 "http://www.w3.org/Graphics/SVG/1.1/DTD/svg11.dtd">
<!-- Generated by graphviz version 2.43.0 (0)
 -->
<!-- Title: src/infrastructure/csv_parser.cpp Pages: 1 -->
<svg width="494pt" height="159pt"
 viewBox="0.00 0.00 493.50 159.00" xmlns="http://www.w3.org/2000/svg" xmlns:xlink="http://www.w3.org/1999/xlink">

<svg id="main" version="1.1" xmlns="http://www.w3.org/2000/svg" xmlns:xlink="http://www.w3.org/1999/xlink" xml:space="preserve" onload="init(evt)">
<style type="text/css"><![CDATA[
.node, .edge {opacity: 0.7;}
.node.selected, .edge.selected {opacity: 1;}
.edge:hover path { stroke: red; }
.edge:hover polygon { stroke: red; fill: red; }
]]></style>
<script type="application/ecmascript" xlink:href="svg.min.js"/>
<svg id="graph" class="graph">
<g id="graph0" class="graph" transform="scale(1 1) rotate(0) translate(4 155)">
<title>src/infrastructure/csv_parser.cpp</title>
<!-- Node1 -->
<g id="Node000001" class="node">
<title>Node1</title>
<g id="a_Node000001"><a xlink:title=" ">
<polygon fill="#999999" stroke="#666666" points="353,-151 253,-151 253,-121 353,-121 353,-151"/>
<text text-anchor="start" x="261" y="-139" font-family="Helvetica,sans-Serif" font-size="10.00">src/infrastructure</text>
<text text-anchor="middle" x="303" y="-128" font-family="Helvetica,sans-Serif" font-size="10.00">/csv_parser.cpp</text>
</a>
</g>
</g>
<!-- Node2 -->
<g id="Node000002" class="node">
<title>Node2</title>
<g id="a_Node000002"><a xlink:href="csv__parser_8h.html" target="_top" xlink:title=" ">
<polygon fill="white" stroke="#666666" points="179,-85 77,-85 77,-55 179,-55 179,-85"/>
<text text-anchor="start" x="85" y="-73" font-family="Helvetica,sans-Serif" font-size="10.00">infrastructure/csv</text>
<text text-anchor="middle" x="128" y="-62" font-family="Helvetica,sans-Serif" font-size="10.00">_parser.h</text>
</a>
</g>
</g>
<!-- Node1&#45;&gt;Node2 -->
<g id="edge1_Node000001_Node000002" class="edge">
<title>Node1&#45;&gt;Node2</title>
<g id="a_edge1_Node000001_Node000002"><a xlink:title=" ">
<path fill="none" stroke="#63b8ff" d="M264.6,-120.95C238.49,-111.41 203.78,-98.71 175.87,-88.51"/>
<polygon fill="#63b8ff" stroke="#63b8ff" points="176.91,-85.16 166.31,-85.01 174.5,-91.73 176.91,-85.16"/>
</a>
</g>
</g>
<!-- Node7 -->
<g id="Node000007" class="node">
<title>Node7</title>
<g id="a_Node000007"><a xlink:title=" ">
<polygon fill="#e0e0e0" stroke="#999999" points="253,-79.5 197,-79.5 197,-60.5 253,-60.5 253,-79.5"/>
<text text-anchor="middle" x="225" y="-67.5" font-family="Helvetica,sans-Serif" font-size="10.00">sstream</text>
</a>
</g>
</g>
<!-- Node1&#45;&gt;Node7 -->
<g id="edge6_Node000001_Node000007" class="edge">
<title>Node1&#45;&gt;Node7</title>
<g id="a_edge6_Node000001_Node000007"><a xlink:title=" ">
<path fill="none" stroke="#63b8ff" d="M285.69,-120.8C273.29,-110.62 256.6,-96.93 243.87,-86.48"/>
<polygon fill="#63b8ff" stroke="#63b8ff" points="245.73,-83.48 235.78,-79.84 241.29,-88.89 245.73,-83.48"/>
</a>
</g>
</g>
<!-- Node8 -->
<g id="Node000008" class="node">
<title>Node8</title>
<g id="a_Node000008"><a xlink:title=" ">
<polygon fill="#e0e0e0" stroke="#999999" points="335,-79.5 271,-79.5 271,-60.5 335,-60.5 335,-79.5"/>
<text text-anchor="middle" x="303" y="-67.5" font-family="Helvetica,sans-Serif" font-size="10.00">algorithm</text>
</a>
</g>
</g>
<!-- Node1&#45;&gt;Node8 -->
<g id="edge7_Node000001_Node000008" class="edge">
<title>Node1&#45;&gt;Node8</title>
<g id="a_edge7_Node000001_Node000008"><a xlink:title=" ">
<path fill="none" stroke="#63b8ff" d="M303,-120.8C303,-111.7 303,-99.79 303,-89.9"/>
<polygon fill="#63b8ff" stroke="#63b8ff" points="306.5,-89.84 303,-79.84 299.5,-89.84 306.5,-89.84"/>
</a>
</g>
</g>
<!-- Node9 -->
<g id="Node000009" class="node">
<title>Node9</title>
<g id="a_Node000009"><a xlink:title=" ">
<polygon fill="#e0e0e0" stroke="#999999" points="402.5,-79.5 353.5,-79.5 353.5,-60.5 402.5,-60.5 402.5,-79.5"/>
<text text-anchor="middle" x="378" y="-67.5" font-family="Helvetica,sans-Serif" font-size="10.00">cctype</text>
</a>
</g>
</g>
<!-- Node1&#45;&gt;Node9 -->
<g id="edge8_Node000001_Node000009" class="edge">
<title>Node1&#45;&gt;Node9</title>
<g id="a_edge8_Node000001_Node000009"><a xlink:title=" ">
<path fill="none" stroke="#63b8ff" d="M319.64,-120.8C331.57,-110.62 347.61,-96.93 359.86,-86.48"/>
<polygon fill="#63b8ff" stroke="#63b8ff" points="362.3,-89 367.64,-79.84 357.76,-83.67 362.3,-89"/>
</a>
</g>
</g>
<!-- Node10 -->
<g id="Node000010" class="node">
<title>Node10</title>
<g id="a_Node000010"><a xlink:title=" ">
<polygon fill="#e0e0e0" stroke="#999999" points="485.5,-79.5 420.5,-79.5 420.5,-60.5 485.5,-60.5 485.5,-79.5"/>
<text text-anchor="middle" x="453" y="-67.5" font-family="Helvetica,sans-Serif" font-size="10.00">stdexcept</text>
</a>
</g>
</g>
<!-- Node1&#45;&gt;Node10 -->
<g id="edge9_Node000001_Node000010" class="edge">
<title>Node1&#45;&gt;Node10</title>
<g id="a_edge9_Node000001_Node000010"><a xlink:title=" ">
<path fill="none" stroke="#63b8ff" d="M335.92,-120.95C362.11,-109.78 398.42,-94.29 423.63,-83.53"/>
<polygon fill="#63b8ff" stroke="#63b8ff" points="425.21,-86.66 433.04,-79.52 422.47,-80.22 425.21,-86.66"/>
</a>
</g>
</g>
<!-- Node3 -->
<g id="Node000003" class="node">
<title>Node3</title>
<g id="a_Node000003"><a xlink:title=" ">
<polygon fill="#e0e0e0" stroke="#999999" points="48,-19 0,-19 0,0 48,0 48,-19"/>
<text text-anchor="middle" x="24" y="-7" font-family="Helvetica,sans-Serif" font-size="10.00">iosfwd</text>
</a>
</g>
</g>
<!-- Node2&#45;&gt;Node3 -->
<g id="edge2_Node000002_Node000003" class="edge">
<title>Node2&#45;&gt;Node3</title>
<g id="a_edge2_Node000002_Node000003"><a xlink:title=" ">
<path fill="none" stroke="#63b8ff" d="M103.09,-54.99C86.51,-45.66 64.84,-33.47 48.37,-24.21"/>
<polygon fill="#63b8ff" stroke="#63b8ff" points="49.79,-20.99 39.36,-19.14 46.36,-27.09 49.79,-20.99"/>
</a>
</g>
</g>
<!-- Node4 -->
<g id="Node000004" class="node">
<title>Node4</title>
<g id="a_Node000004"><a xlink:title=" ">
<polygon fill="#e0e0e0" stroke="#999999" points="122,-19 66,-19 66,0 122,0 122,-19"/>
<text text-anchor="middle" x="94" y="-7" font-family="Helvetica,sans-Serif" font-size="10.00">optional</text>
</a>
</g>
</g>
<!-- Node2&#45;&gt;Node4 -->
<g id="edge3_Node000002_Node000004" class="edge">
<title>Node2&#45;&gt;Node4</title>
<g id="a_edge3_Node000002_Node000004"><a xlink:title=" ">
<path fill="none" stroke="#63b8ff" d="M119.77,-54.84C115.09,-46.78 109.18,-36.62 104.2,-28.06"/>
<polygon fill="#63b8ff" stroke="#63b8ff" points="107.15,-26.15 99.09,-19.27 101.09,-29.67 107.15,-26.15"/>
</a>
</g>
</g>
<!-- Node5 -->
<g id="Node000005" class="node">
<title>Node5</title>
<g id="a_Node000005"><a xlink:title=" ">
<polygon fill="#e0e0e0" stroke="#999999" points="184,-19 140,-19 140,0 184,0 184,-19"/>
<text text-anchor="middle" x="162" y="-7" font-family="Helvetica,sans-Serif" font-size="10.00">string</text>
</a>
</g>
</g>
<!-- Node2&#45;&gt;Node5 -->
<g id="edge4_Node000002_Node000005" class="edge">
<title>Node2&#45;&gt;Node5</title>
<g id="a_edge4_Node000002_Node000005"><a xlink:title=" ">
<path fill="none" stroke="#63b8ff" d="M136.23,-54.84C140.91,-46.78 146.82,-36.62 151.8,-28.06"/>
<polygon fill="#63b8ff" stroke="#63b8ff" points="154.91,-29.67 156.91,-19.27 148.85,-26.15 154.91,-29.67"/>
</a>
</g>
</g>
<!-- Node6 -->
<g id="Node000006" class="node">
<title>Node6</title>
<g id="a_Node000006"><a xlink:title=" ">
<polygon fill="#e0e0e0" stroke="#999999" points="249.5,-19 202.5,-19 202.5,0 249.5,0 249.5,-19"/>
<text text-anchor="middle" x="226" y="-7" font-family="Helvetica,sans-Serif" font-size="10.00">vector</text>
</a>
</g>
</g>
<!-- Node2&#45;&gt;Node6 -->
<g id="edge5_Node000002_Node000006" class="edge">
<title>Node2&#45;&gt;Node6</title>
<g id="a_edge5_Node000002_Node000006"><a xlink:title=" ">
<path fill="none" stroke="#63b8ff" d="M151.72,-54.84C167.2,-45.6 187.32,-33.59 202.71,-24.4"/>
<polygon fill="#63b8ff" stroke="#63b8ff" points="204.81,-27.23 211.6,-19.09 201.22,-21.21 204.81,-27.23"/>
</a>
</g>
</g>
</g>
</svg>
</svg>

<style type='text/css'>
<![CDATA[
[data-mouse-over-selected='false'] { opacity: 0.7; }
[data-mouse-over-selected='true']  { opacity: 1.0; }
]]>
</style>
<script type="application/ecmascript"><![CDATA[
document.addEventListener('DOMContentLoaded', (event) => {
  highlightEdges();
  highlightAdjacentNodes();
});
]]></script>
</svg>
