<?xml version="1.0" encoding="UTF-8" standalone="no"?>
<!DOCTYPE svg PUBLIC "-//W3C//DTD SVG 1.1//EN"
 "http://www.w3.org/Graphics/SVG/1.1/DTD/svg11.dtd">
<!-- Generated by graphviz version 2.43.0 (0)
 -->
<!-- Title: src/main.cpp Pages: 1 -->
<!--zoomable 445 -->

<svg id="main" version="1.1" xmlns="http://www.w3.org/2000/svg" xmlns:xlink="http://www.w3.org/1999/xlink" xml:space="preserve" onload="init(evt)">
<style type="text/css"><![CDATA[
.node, .edge {opacity: 0.7;}
.node.selected, .edge.selected {opacity: 1;}
.edge:hover path { stroke: red; }
.edge:hover polygon { stroke: red; fill: red; }
]]></style>

<defs>
  <circle id="rim" cx="0" cy="0" r="7"/>
  <circle id="rim2" cx="0" cy="0" r="3.5"/>
  <g id="zoomPlus">
    <use xlink:href="#rim" fill="#404040"><set attributeName="fill" to="#808080" begin="zoomplus.mouseover" end="zoomplus.mouseout"/></use>
    <path d="M-4,0h8M0,-4v8" fill="none" stroke="white" stroke-width="1.5" pointer-events="none"/>
  </g>
  <g id="zoomMin">
    <use xlink:href="#rim" fill="#404040"><set attributeName="fill" to="#808080" begin="zoomminus.mouseover" end="zoomminus.mouseout"/></use>
    <path d="M-4,0h8" fill="none" stroke="white" stroke-width="1.5" pointer-events="none"/>
  </g>
  <g id="arrowUp" transform="translate(30 24)">
    <use xlink:href="#rim"/>
    <path pointer-events="none" fill="none" stroke="white" stroke-width="1.5" d="M0,-3.0v7 M-2.5,-0.5L0,-3.0L2.5,-0.5"/>
  </g>
  <g id="arrowRight" transform="rotate(90) translate(36 -43)">
    <use xlink:href="#rim"/>
    <path pointer-events="none" fill="none" stroke="white" stroke-width="1.5" d="M0,-3.0v7 M-2.5,-0.5L0,-3.0L2.5,-0.5"/>
  </g>
  <g id="arrowDown" transform="rotate(180) translate(-30 -48)">
    <use xlink:href="#rim"/>
    <path pointer-events="none" fill="none" stroke="white" stroke-width="1.5" d="M0,-3.0v7 M-2.5,-0.5L0,-3.0L2.5,-0.5"/>
  </g>
  <g id="arrowLeft" transform="rotate(270) translate(-36 17)">
    <use xlink:href="#rim"/>
    <path pointer-events="none" fill="none" stroke="white" stroke-width="1.5" d="M0,-3.0v7 M-2.5,-0.5L0,-3.0L2.5,-0.5"/>
  </g>
  <g id="resetDef">
    <use xlink:href="#rim2" fill="#404040"><set attributeName="fill" to="#808080" begin="reset.mouseover" end="reset.mouseout"/></use>
  </g>
</defs>
<script type="application/ecmascript">
var viewWidth = 1221;
var viewHeight = 445;
var sectionId = 'dynsection-0';
</script>
<script type="application/ecmascript" xlink:href="svg.min.js"/>
<svg id="graph" class="graph">
<g id="viewport">
<title>src/main.cpp</title>
<!-- Node1 -->
<g id="Node000001" class="node">
<title>Node1</title>
<g id="a_Node000001"><a xlink:title=" ">
<polygon fill="#999999" stroke="#666666" points="930.5,-437 851.5,-437 851.5,-418 930.5,-418 930.5,-437"/>
<text text-anchor="middle" x="891" y="-425" font-family="Helvetica,sans-Serif" font-size="10.00">src/main.cpp</text>
</a>
</g>
</g>
<!-- Node2 -->
<g id="Node000002" class="node">
<title>Node2</title>
<g id="a_Node000002"><a xlink:href="navigation__facade_8h.html" target="_top" xlink:title=" ">
<polygon fill="white" stroke="#666666" points="698.5,-382 573.5,-382 573.5,-352 698.5,-352 698.5,-382"/>
<text text-anchor="start" x="581.5" y="-370" font-family="Helvetica,sans-Serif" font-size="10.00">application/navigation</text>
<text text-anchor="middle" x="636" y="-359" font-family="Helvetica,sans-Serif" font-size="10.00">_facade.h</text>
</a>
</g>
</g>
<!-- Node1&#45;&gt;Node2 -->
<g id="edge1_Node000001_Node000002" class="edge">
<title>Node1&#45;&gt;Node2</title>
<g id="a_edge1_Node000001_Node000002"><a xlink:title=" ">
<path fill="none" stroke="#63b8ff" d="M853.92,-417.99C815.62,-409.21 754.89,-395.27 707.26,-384.35"/>
<polygon fill="#63b8ff" stroke="#63b8ff" points="707.84,-380.89 697.31,-382.06 706.27,-387.71 707.84,-380.89"/>
</a>
</g>
</g>
<!-- Node11 -->
<g id="Node000011" class="node">
<title>Node11</title>
<g id="a_Node000011"><a xlink:title=" ">
<polygon fill="#e0e0e0" stroke="#999999" points="120,-79.5 70,-79.5 70,-60.5 120,-60.5 120,-79.5"/>
<text text-anchor="middle" x="95" y="-67.5" font-family="Helvetica,sans-Serif" font-size="10.00">chrono</text>
</a>
</g>
</g>
<!-- Node1&#45;&gt;Node11 -->
<g id="edge51_Node000001_Node000011" class="edge">
<title>Node1&#45;&gt;Node11</title>
<g id="a_edge51_Node000001_Node000011"><a xlink:title=" ">
<path fill="none" stroke="#63b8ff" d="M851.29,-425.2C683.09,-419.19 38,-390.72 38,-307.5 38,-307.5 38,-307.5 38,-184.5 38,-146.68 63.58,-108.6 80.47,-87.57"/>
<polygon fill="#63b8ff" stroke="#63b8ff" points="83.35,-89.58 87.07,-79.66 77.98,-85.09 83.35,-89.58"/>
</a>
</g>
</g>
<!-- Node14 -->
<g id="Node000014" class="node">
<title>Node14</title>
<g id="a_Node000014"><a xlink:title=" ">
<polygon fill="#e0e0e0" stroke="#999999" points="775,-140 731,-140 731,-121 775,-121 775,-140"/>
<text text-anchor="middle" x="753" y="-128" font-family="Helvetica,sans-Serif" font-size="10.00">string</text>
</a>
</g>
</g>
<!-- Node1&#45;&gt;Node14 -->
<g id="edge54_Node000001_Node000014" class="edge">
<title>Node1&#45;&gt;Node14</title>
<g id="a_edge54_Node000001_Node000014"><a xlink:title=" ">
<path fill="none" stroke="#63b8ff" d="M874.91,-417.74C845.94,-400.67 788,-359.96 788,-307.5 788,-307.5 788,-307.5 788,-245 788,-209.75 772.4,-170.97 762.03,-149.09"/>
<polygon fill="#63b8ff" stroke="#63b8ff" points="765.13,-147.48 757.58,-140.05 758.85,-150.57 765.13,-147.48"/>
</a>
</g>
</g>
<!-- Node20 -->
<g id="Node000020" class="node">
<title>Node20</title>
<g id="a_Node000020"><a xlink:href="graph__builder_8h.html" target="_top" xlink:title=" ">
<polygon fill="white" stroke="#666666" points="1051.5,-261 938.5,-261 938.5,-231 1051.5,-231 1051.5,-261"/>
<text text-anchor="start" x="946.5" y="-249" font-family="Helvetica,sans-Serif" font-size="10.00">infrastructure/graph</text>
<text text-anchor="middle" x="995" y="-238" font-family="Helvetica,sans-Serif" font-size="10.00">_builder.h</text>
</a>
</g>
</g>
<!-- Node1&#45;&gt;Node20 -->
<g id="edge39_Node000001_Node000020" class="edge">
<title>Node1&#45;&gt;Node20</title>
<g id="a_edge39_Node000001_Node000020"><a xlink:title=" ">
<path fill="none" stroke="#63b8ff" d="M896.02,-417.84C911.42,-391.26 958.38,-310.2 981.65,-270.04"/>
<polygon fill="#63b8ff" stroke="#63b8ff" points="984.78,-271.63 986.76,-261.22 978.72,-268.12 984.78,-271.63"/>
</a>
</g>
</g>
<!-- Node25 -->
<g id="Node000025" class="node">
<title>Node25</title>
<g id="a_Node000025"><a xlink:title=" ">
<polygon fill="#e0e0e0" stroke="#999999" points="1083,-376.5 1023,-376.5 1023,-357.5 1083,-357.5 1083,-376.5"/>
<text text-anchor="middle" x="1053" y="-364.5" font-family="Helvetica,sans-Serif" font-size="10.00">iostream</text>
</a>
</g>
</g>
<!-- Node1&#45;&gt;Node25 -->
<g id="edge52_Node000001_Node000025" class="edge">
<title>Node1&#45;&gt;Node25</title>
<g id="a_edge52_Node000001_Node000025"><a xlink:title=" ">
<path fill="none" stroke="#63b8ff" d="M914.56,-417.99C942.27,-407.99 988.47,-391.3 1019.81,-379.99"/>
<polygon fill="#63b8ff" stroke="#63b8ff" points="1021.2,-383.21 1029.42,-376.52 1018.82,-376.62 1021.2,-383.21"/>
</a>
</g>
</g>
<!-- Node26 -->
<g id="Node000026" class="node">
<title>Node26</title>
<g id="a_Node000026"><a xlink:title=" ">
<polygon fill="#e0e0e0" stroke="#999999" points="1157,-376.5 1101,-376.5 1101,-357.5 1157,-357.5 1157,-376.5"/>
<text text-anchor="middle" x="1129" y="-364.5" font-family="Helvetica,sans-Serif" font-size="10.00">sstream</text>
</a>
</g>
</g>
<!-- Node1&#45;&gt;Node26 -->
<g id="edge53_Node000001_Node000026" class="edge">
<title>Node1&#45;&gt;Node26</title>
<g id="a_edge53_Node000001_Node000026"><a xlink:title=" ">
<path fill="none" stroke="#63b8ff" d="M930.71,-419.46C971.57,-411.81 1036.86,-398.44 1092,-382 1094.14,-381.36 1096.33,-380.66 1098.53,-379.92"/>
<polygon fill="#63b8ff" stroke="#63b8ff" points="1099.8,-383.18 1108.05,-376.53 1097.45,-376.59 1099.8,-383.18"/>
</a>
</g>
</g>
<!-- Node3 -->
<g id="Node000003" class="node">
<title>Node3</title>
<g id="a_Node000003"><a xlink:href="a__star__solver_8h.html" target="_top" xlink:title=" ">
<polygon fill="white" stroke="#666666" points="402,-316 312,-316 312,-297 402,-297 402,-316"/>
<text text-anchor="middle" x="357" y="-304" font-family="Helvetica,sans-Serif" font-size="10.00">a_star_solver.h</text>
</a>
</g>
</g>
<!-- Node2&#45;&gt;Node3 -->
<g id="edge2_Node000002_Node000003" class="edge">
<title>Node2&#45;&gt;Node3</title>
<g id="a_edge2_Node000002_Node000003"><a xlink:title=" ">
<path fill="none" stroke="#63b8ff" d="M573.39,-352.87C523.39,-342.39 454.24,-327.89 407.69,-318.13"/>
<polygon fill="#63b8ff" stroke="#63b8ff" points="408.32,-314.69 397.82,-316.06 406.89,-321.54 408.32,-314.69"/>
</a>
</g>
</g>
<!-- Node5 -->
<g id="Node000005" class="node">
<title>Node5</title>
<g id="a_Node000005"><a xlink:href="graph_8h.html" target="_top" xlink:title=" ">
<polygon fill="white" stroke="#666666" points="500,-255.5 398,-255.5 398,-236.5 500,-236.5 500,-255.5"/>
<text text-anchor="middle" x="449" y="-243.5" font-family="Helvetica,sans-Serif" font-size="10.00">../domain/graph.h</text>
</a>
</g>
</g>
<!-- Node2&#45;&gt;Node5 -->
<g id="edge33_Node000002_Node000005" class="edge">
<title>Node2&#45;&gt;Node5</title>
<g id="a_edge33_Node000002_Node000005"><a xlink:title=" ">
<path fill="none" stroke="#63b8ff" d="M613.81,-351.88C577.93,-329.05 507.56,-284.27 471.49,-261.31"/>
<polygon fill="#63b8ff" stroke="#63b8ff" points="473,-258.13 462.69,-255.71 469.25,-264.03 473,-258.13"/>
</a>
</g>
</g>
<!-- Node8 -->
<g id="Node000008" class="node">
<title>Node8</title>
<g id="a_Node000008"><a xlink:href="transport__params_8h.html" target="_top" xlink:title=" ">
<polygon fill="white" stroke="#666666" points="1103,-79.5 991,-79.5 991,-60.5 1103,-60.5 1103,-79.5"/>
<text text-anchor="middle" x="1047" y="-67.5" font-family="Helvetica,sans-Serif" font-size="10.00">transport_params.h</text>
</a>
</g>
</g>
<!-- Node2&#45;&gt;Node8 -->
<g id="edge34_Node000002_Node000008" class="edge">
<title>Node2&#45;&gt;Node8</title>
<g id="a_edge34_Node000002_Node000008"><a xlink:title=" ">
<path fill="none" stroke="#63b8ff" d="M698.66,-357.46C835.34,-337.33 1152.56,-281.97 1209,-195 1223.55,-172.58 1197.73,-132.15 1186,-121 1165.4,-101.42 1136.58,-89.42 1110.52,-82.11"/>
<polygon fill="#63b8ff" stroke="#63b8ff" points="1111.25,-78.68 1100.69,-79.53 1109.47,-85.45 1111.25,-78.68"/>
</a>
</g>
</g>
<!-- Node2&#45;&gt;Node11 -->
<g id="edge35_Node000002_Node000011" class="edge">
<title>Node2&#45;&gt;Node11</title>
<g id="a_edge35_Node000002_Node000011"><a xlink:title=" ">
<path fill="none" stroke="#63b8ff" d="M573.28,-360.83C412.82,-346.75 0,-304.92 0,-247 0,-247 0,-247 0,-184.5 0,-154.33 5.52,-144.85 24,-121 35.85,-105.7 53.67,-93.18 68.49,-84.49"/>
<polygon fill="#63b8ff" stroke="#63b8ff" points="70.23,-87.52 77.25,-79.58 66.81,-81.41 70.23,-87.52"/>
</a>
</g>
</g>
<!-- Node13 -->
<g id="Node000013" class="node">
<title>Node13</title>
<g id="a_Node000013"><a xlink:title=" ">
<polygon fill="#e0e0e0" stroke="#999999" points="684,-140 626,-140 626,-121 684,-121 684,-140"/>
<text text-anchor="middle" x="655" y="-128" font-family="Helvetica,sans-Serif" font-size="10.00">memory</text>
</a>
</g>
</g>
<!-- Node2&#45;&gt;Node13 -->
<g id="edge36_Node000002_Node000013" class="edge">
<title>Node2&#45;&gt;Node13</title>
<g id="a_edge36_Node000002_Node000013"><a xlink:title=" ">
<path fill="none" stroke="#63b8ff" d="M637.16,-351.68C640.44,-311.25 649.76,-196.17 653.46,-150.51"/>
<polygon fill="#63b8ff" stroke="#63b8ff" points="656.97,-150.51 654.29,-140.26 649.99,-149.94 656.97,-150.51"/>
</a>
</g>
</g>
<!-- Node2&#45;&gt;Node14 -->
<g id="edge37_Node000002_Node000014" class="edge">
<title>Node2&#45;&gt;Node14</title>
<g id="a_edge37_Node000002_Node000014"><a xlink:title=" ">
<path fill="none" stroke="#63b8ff" d="M643.14,-351.68C663.49,-310.91 721.71,-194.21 744.09,-149.36"/>
<polygon fill="#63b8ff" stroke="#63b8ff" points="747.3,-150.77 748.63,-140.26 741.03,-147.64 747.3,-150.77"/>
</a>
</g>
</g>
<!-- Node17 -->
<g id="Node000017" class="node">
<title>Node17</title>
<g id="a_Node000017"><a xlink:title=" ">
<polygon fill="#e0e0e0" stroke="#999999" points="327.5,-140 280.5,-140 280.5,-121 327.5,-121 327.5,-140"/>
<text text-anchor="middle" x="304" y="-128" font-family="Helvetica,sans-Serif" font-size="10.00">vector</text>
</a>
</g>
</g>
<!-- Node2&#45;&gt;Node17 -->
<g id="edge38_Node000002_Node000017" class="edge">
<title>Node2&#45;&gt;Node17</title>
<g id="a_edge38_Node000002_Node000017"><a xlink:title=" ">
<path fill="none" stroke="#63b8ff" d="M573.14,-365.8C486.64,-364.04 337.63,-355.22 303,-316 261.69,-269.21 283.84,-186.77 296.78,-150.05"/>
<polygon fill="#63b8ff" stroke="#63b8ff" points="300.24,-150.8 300.42,-140.21 293.67,-148.37 300.24,-150.8"/>
</a>
</g>
</g>
<!-- Node18 -->
<g id="Node000018" class="node">
<title>Node18</title>
<g id="a_Node000018"><a xlink:href="strategies_8h.html" target="_top" xlink:title=" ">
<polygon fill="white" stroke="#666666" points="898,-316 824,-316 824,-297 898,-297 898,-316"/>
<text text-anchor="middle" x="861" y="-304" font-family="Helvetica,sans-Serif" font-size="10.00">strategies.h</text>
</a>
</g>
</g>
<!-- Node2&#45;&gt;Node18 -->
<g id="edge28_Node000002_Node000018" class="edge">
<title>Node2&#45;&gt;Node18</title>
<g id="a_edge28_Node000002_Node000018"><a xlink:title=" ">
<path fill="none" stroke="#63b8ff" d="M689.89,-351.99C729.23,-341.76 781.82,-328.09 818.27,-318.61"/>
<polygon fill="#63b8ff" stroke="#63b8ff" points="819.3,-321.96 828.1,-316.05 817.54,-315.18 819.3,-321.96"/>
</a>
</g>
</g>
<!-- Node4 -->
<g id="Node000004" class="node">
<title>Node4</title>
<g id="a_Node000004"><a xlink:href="combined__cost_8h.html" target="_top" xlink:title=" ">
<polygon fill="white" stroke="#666666" points="464.5,-85 351.5,-85 351.5,-55 464.5,-55 464.5,-85"/>
<text text-anchor="start" x="359.5" y="-73" font-family="Helvetica,sans-Serif" font-size="10.00">../domain/combined</text>
<text text-anchor="middle" x="408" y="-62" font-family="Helvetica,sans-Serif" font-size="10.00">_cost.h</text>
</a>
</g>
</g>
<!-- Node3&#45;&gt;Node4 -->
<g id="edge3_Node000003_Node000004" class="edge">
<title>Node3&#45;&gt;Node4</title>
<g id="a_edge3_Node000003_Node000004"><a xlink:title=" ">
<path fill="none" stroke="#63b8ff" d="M346.97,-296.85C316.4,-269.42 229.01,-182.6 272,-121 287.89,-98.23 315.37,-85.79 341.48,-79.02"/>
<polygon fill="#63b8ff" stroke="#63b8ff" points="342.46,-82.39 351.4,-76.69 340.86,-75.57 342.46,-82.39"/>
</a>
</g>
</g>
<!-- Node3&#45;&gt;Node5 -->
<g id="edge4_Node000003_Node000005" class="edge">
<title>Node3&#45;&gt;Node5</title>
<g id="a_edge4_Node000003_Node000005"><a xlink:title=" ">
<path fill="none" stroke="#63b8ff" d="M370.57,-296.87C385.39,-287.45 409.33,-272.23 426.86,-261.08"/>
<polygon fill="#63b8ff" stroke="#63b8ff" points="428.81,-263.99 435.37,-255.67 425.05,-258.08 428.81,-263.99"/>
</a>
</g>
</g>
<!-- Node3&#45;&gt;Node8 -->
<g id="edge23_Node000003_Node000008" class="edge">
<title>Node3&#45;&gt;Node8</title>
<g id="a_edge23_Node000003_Node000008"><a xlink:title=" ">
<path fill="none" stroke="#63b8ff" d="M402.1,-298.02C549.26,-273.58 1006.11,-197.54 1009,-195 1039.64,-168.09 1045.95,-117.19 1047.01,-89.71"/>
<polygon fill="#63b8ff" stroke="#63b8ff" points="1050.52,-89.57 1047.21,-79.51 1043.52,-89.44 1050.52,-89.57"/>
</a>
</g>
</g>
<!-- Node9 -->
<g id="Node000009" class="node">
<title>Node9</title>
<g id="a_Node000009"><a xlink:href="types_8h.html" target="_top" xlink:title=" ">
<polygon fill="white" stroke="#666666" points="586.5,-19 533.5,-19 533.5,0 586.5,0 586.5,-19"/>
<text text-anchor="middle" x="560" y="-7" font-family="Helvetica,sans-Serif" font-size="10.00">types.h</text>
</a>
</g>
</g>
<!-- Node3&#45;&gt;Node9 -->
<g id="edge24_Node000003_Node000009" class="edge">
<title>Node3&#45;&gt;Node9</title>
<g id="a_edge24_Node000003_Node000009"><a xlink:title=" ">
<path fill="none" stroke="#63b8ff" d="M330.39,-296.92C241.05,-266.86 -37.15,-162.29 61,-55 92.07,-21.04 413,-12.81 523.14,-10.99"/>
<polygon fill="#63b8ff" stroke="#63b8ff" points="523.48,-14.48 533.42,-10.82 523.36,-7.48 523.48,-14.48"/>
</a>
</g>
</g>
<!-- Node3&#45;&gt;Node11 -->
<g id="edge25_Node000003_Node000011" class="edge">
<title>Node3&#45;&gt;Node11</title>
<g id="a_edge25_Node000003_Node000011"><a xlink:title=" ">
<path fill="none" stroke="#63b8ff" d="M340.85,-296.95C325.78,-288.64 302.98,-275.23 285,-261 212.84,-203.89 139.06,-121.96 109.01,-87.39"/>
<polygon fill="#63b8ff" stroke="#63b8ff" points="111.53,-84.94 102.34,-79.66 106.23,-89.52 111.53,-84.94"/>
</a>
</g>
</g>
<!-- Node12 -->
<g id="Node000012" class="node">
<title>Node12</title>
<g id="a_Node000012"><a xlink:title=" ">
<polygon fill="#e0e0e0" stroke="#999999" points="644,-79.5 588,-79.5 588,-60.5 644,-60.5 644,-79.5"/>
<text text-anchor="middle" x="616" y="-67.5" font-family="Helvetica,sans-Serif" font-size="10.00">optional</text>
</a>
</g>
</g>
<!-- Node3&#45;&gt;Node12 -->
<g id="edge26_Node000003_Node000012" class="edge">
<title>Node3&#45;&gt;Node12</title>
<g id="a_edge26_Node000003_Node000012"><a xlink:title=" ">
<path fill="none" stroke="#63b8ff" d="M402.11,-298.09C433.58,-291.57 475.72,-280.07 509,-261 546.1,-239.74 556.56,-231.4 579,-195 599.75,-161.33 609.46,-115.33 613.5,-89.88"/>
<polygon fill="#63b8ff" stroke="#63b8ff" points="617,-90.15 614.98,-79.75 610.07,-89.14 617,-90.15"/>
</a>
</g>
</g>
<!-- Node3&#45;&gt;Node17 -->
<g id="edge27_Node000003_Node000017" class="edge">
<title>Node3&#45;&gt;Node17</title>
<g id="a_edge27_Node000003_Node000017"><a xlink:title=" ">
<path fill="none" stroke="#63b8ff" d="M351.96,-297C341.55,-278.94 317.83,-235.16 308,-195 304.42,-180.38 303.52,-163.33 303.46,-150.58"/>
<polygon fill="#63b8ff" stroke="#63b8ff" points="306.96,-150.32 303.59,-140.27 299.96,-150.23 306.96,-150.32"/>
</a>
</g>
</g>
<!-- Node6 -->
<g id="Node000006" class="node">
<title>Node6</title>
<g id="a_Node000006"><a xlink:href="edge_8h.html" target="_top" xlink:title=" ">
<polygon fill="white" stroke="#666666" points="570,-195 520,-195 520,-176 570,-176 570,-195"/>
<text text-anchor="middle" x="545" y="-183" font-family="Helvetica,sans-Serif" font-size="10.00">edge.h</text>
</a>
</g>
</g>
<!-- Node5&#45;&gt;Node6 -->
<g id="edge5_Node000005_Node000006" class="edge">
<title>Node5&#45;&gt;Node6</title>
<g id="a_edge5_Node000005_Node000006"><a xlink:title=" ">
<path fill="none" stroke="#63b8ff" d="M463.17,-236.37C478.69,-226.91 503.83,-211.59 522.15,-200.42"/>
<polygon fill="#63b8ff" stroke="#63b8ff" points="524.06,-203.36 530.78,-195.17 520.42,-197.38 524.06,-203.36"/>
</a>
</g>
</g>
<!-- Node5&#45;&gt;Node9 -->
<g id="edge19_Node000005_Node000009" class="edge">
<title>Node5&#45;&gt;Node9</title>
<g id="a_edge19_Node000005_Node000009"><a xlink:title=" ">
<path fill="none" stroke="#63b8ff" d="M409.8,-236.48C349.62,-221.25 244.2,-184.8 272,-121 313.12,-26.63 454.86,-11.68 522.93,-10.09"/>
<polygon fill="#63b8ff" stroke="#63b8ff" points="523.25,-13.58 533.2,-9.93 523.15,-6.58 523.25,-13.58"/>
</a>
</g>
</g>
<!-- Node5&#45;&gt;Node14 -->
<g id="edge22_Node000005_Node000014" class="edge">
<title>Node5&#45;&gt;Node14</title>
<g id="a_edge22_Node000005_Node000014"><a xlink:title=" ">
<path fill="none" stroke="#63b8ff" d="M471.85,-236.47C525.48,-216.45 659.52,-166.4 721.12,-143.4"/>
<polygon fill="#63b8ff" stroke="#63b8ff" points="722.57,-146.6 730.71,-139.82 720.12,-140.04 722.57,-146.6"/>
</a>
</g>
</g>
<!-- Node15 -->
<g id="Node000015" class="node">
<title>Node15</title>
<g id="a_Node000015"><a xlink:href="node_8h.html" target="_top" xlink:title=" ">
<polygon fill="white" stroke="#666666" points="866,-195 816,-195 816,-176 866,-176 866,-195"/>
<text text-anchor="middle" x="841" y="-183" font-family="Helvetica,sans-Serif" font-size="10.00">node.h</text>
</a>
</g>
</g>
<!-- Node5&#45;&gt;Node15 -->
<g id="edge16_Node000005_Node000015" class="edge">
<title>Node5&#45;&gt;Node15</title>
<g id="a_edge16_Node000005_Node000015"><a xlink:title=" ">
<path fill="none" stroke="#63b8ff" d="M500.25,-237.35C581.18,-225.27 736.51,-202.09 805.95,-191.73"/>
<polygon fill="#63b8ff" stroke="#63b8ff" points="806.57,-195.18 815.95,-190.24 805.54,-188.25 806.57,-195.18"/>
</a>
</g>
</g>
<!-- Node16 -->
<g id="Node000016" class="node">
<title>Node16</title>
<g id="a_Node000016"><a xlink:title=" ">
<polygon fill="#e0e0e0" stroke="#999999" points="425.5,-195 332.5,-195 332.5,-176 425.5,-176 425.5,-195"/>
<text text-anchor="middle" x="379" y="-183" font-family="Helvetica,sans-Serif" font-size="10.00">unordered_map</text>
</a>
</g>
</g>
<!-- Node5&#45;&gt;Node16 -->
<g id="edge20_Node000005_Node000016" class="edge">
<title>Node5&#45;&gt;Node16</title>
<g id="a_edge20_Node000005_Node000016"><a xlink:title=" ">
<path fill="none" stroke="#63b8ff" d="M438.67,-236.37C427.81,-227.3 410.51,-212.84 397.33,-201.82"/>
<polygon fill="#63b8ff" stroke="#63b8ff" points="399.29,-198.89 389.37,-195.17 394.8,-204.27 399.29,-198.89"/>
</a>
</g>
</g>
<!-- Node5&#45;&gt;Node17 -->
<g id="edge21_Node000005_Node000017" class="edge">
<title>Node5&#45;&gt;Node17</title>
<g id="a_edge21_Node000005_Node000017"><a xlink:title=" ">
<path fill="none" stroke="#63b8ff" d="M401.76,-236.45C375.59,-229.44 344.34,-216.94 324,-195 312.59,-182.7 307.69,-163.92 305.58,-149.98"/>
<polygon fill="#63b8ff" stroke="#63b8ff" points="309.06,-149.57 304.42,-140.04 302.11,-150.38 309.06,-149.57"/>
</a>
</g>
</g>
<!-- Node7 -->
<g id="Node000007" class="node">
<title>Node7</title>
<g id="a_Node000007"><a xlink:href="i__time__variant_8h.html" target="_top" xlink:title=" ">
<polygon fill="white" stroke="#666666" points="532,-140 436,-140 436,-121 532,-121 532,-140"/>
<text text-anchor="middle" x="484" y="-128" font-family="Helvetica,sans-Serif" font-size="10.00">i_time_variant.h</text>
</a>
</g>
</g>
<!-- Node6&#45;&gt;Node7 -->
<g id="edge6_Node000006_Node000007" class="edge">
<title>Node6&#45;&gt;Node7</title>
<g id="a_edge6_Node000006_Node000007"><a xlink:title=" ">
<path fill="none" stroke="#63b8ff" d="M535.2,-175.98C526.18,-168.15 512.59,-156.34 501.68,-146.86"/>
<polygon fill="#63b8ff" stroke="#63b8ff" points="503.82,-144.09 493.98,-140.17 499.23,-149.37 503.82,-144.09"/>
</a>
</g>
</g>
<!-- Node6&#45;&gt;Node9 -->
<g id="edge13_Node000006_Node000009" class="edge">
<title>Node6&#45;&gt;Node9</title>
<g id="a_edge13_Node000006_Node000009"><a xlink:title=" ">
<path fill="none" stroke="#63b8ff" d="M545.76,-175.63C548.1,-148.52 555.19,-66.32 558.39,-29.13"/>
<polygon fill="#63b8ff" stroke="#63b8ff" points="561.88,-29.41 559.25,-19.14 554.91,-28.81 561.88,-29.41"/>
</a>
</g>
</g>
<!-- Node6&#45;&gt;Node13 -->
<g id="edge14_Node000006_Node000013" class="edge">
<title>Node6&#45;&gt;Node13</title>
<g id="a_edge14_Node000006_Node000013"><a xlink:title=" ">
<path fill="none" stroke="#63b8ff" d="M562.67,-175.98C580.29,-167.5 607.58,-154.35 627.93,-144.54"/>
<polygon fill="#63b8ff" stroke="#63b8ff" points="629.52,-147.66 637.01,-140.17 626.48,-141.36 629.52,-147.66"/>
</a>
</g>
</g>
<!-- Node6&#45;&gt;Node14 -->
<g id="edge15_Node000006_Node000014" class="edge">
<title>Node6&#45;&gt;Node14</title>
<g id="a_edge15_Node000006_Node000014"><a xlink:title=" ">
<path fill="none" stroke="#63b8ff" d="M570.09,-178.11C607.94,-168.46 679.62,-150.2 721.12,-139.62"/>
<polygon fill="#63b8ff" stroke="#63b8ff" points="722.16,-142.97 730.98,-137.11 720.43,-136.19 722.16,-142.97"/>
</a>
</g>
</g>
<!-- Node7&#45;&gt;Node4 -->
<g id="edge7_Node000007_Node000004" class="edge">
<title>Node7&#45;&gt;Node4</title>
<g id="a_edge7_Node000007_Node000004"><a xlink:title=" ">
<path fill="none" stroke="#63b8ff" d="M472.79,-120.87C462.76,-113.15 447.67,-101.54 434.58,-91.46"/>
<polygon fill="#63b8ff" stroke="#63b8ff" points="436.4,-88.44 426.34,-85.11 432.13,-93.99 436.4,-88.44"/>
</a>
</g>
</g>
<!-- Node7&#45;&gt;Node8 -->
<g id="edge8_Node000007_Node000008" class="edge">
<title>Node7&#45;&gt;Node8</title>
<g id="a_edge8_Node000007_Node000008"><a xlink:title=" ">
<path fill="none" stroke="#63b8ff" d="M532,-124.51C632.67,-114.05 866.03,-89.8 980.82,-77.88"/>
<polygon fill="#63b8ff" stroke="#63b8ff" points="981.29,-81.35 990.88,-76.83 980.57,-74.38 981.29,-81.35"/>
</a>
</g>
</g>
<!-- Node7&#45;&gt;Node11 -->
<g id="edge11_Node000007_Node000011" class="edge">
<title>Node7&#45;&gt;Node11</title>
<g id="a_edge11_Node000007_Node000011"><a xlink:title=" ">
<path fill="none" stroke="#63b8ff" d="M435.91,-122.27C356.64,-110.35 200.34,-86.84 130.35,-76.32"/>
<polygon fill="#63b8ff" stroke="#63b8ff" points="130.69,-72.83 120.28,-74.8 129.64,-79.75 130.69,-72.83"/>
</a>
</g>
</g>
<!-- Node7&#45;&gt;Node12 -->
<g id="edge12_Node000007_Node000012" class="edge">
<title>Node7&#45;&gt;Node12</title>
<g id="a_edge12_Node000007_Node000012"><a xlink:title=" ">
<path fill="none" stroke="#63b8ff" d="M503.19,-120.99C525.39,-111.16 562.12,-94.88 587.62,-83.58"/>
<polygon fill="#63b8ff" stroke="#63b8ff" points="589.06,-86.77 596.78,-79.52 586.22,-80.37 589.06,-86.77"/>
</a>
</g>
</g>
<!-- Node8&#45;&gt;Node9 -->
<g id="edge9_Node000008_Node000009" class="edge">
<title>Node8&#45;&gt;Node9</title>
<g id="a_edge9_Node000008_Node000009"><a xlink:title=" ">
<path fill="none" stroke="#63b8ff" d="M990.66,-62.23C889.81,-50.12 681.12,-25.05 596.67,-14.9"/>
<polygon fill="#63b8ff" stroke="#63b8ff" points="596.88,-11.4 586.53,-13.69 596.04,-18.35 596.88,-11.4"/>
</a>
</g>
</g>
<!-- Node10 -->
<g id="Node000010" class="node">
<title>Node10</title>
<g id="a_Node000010"><a xlink:title=" ">
<polygon fill="#e0e0e0" stroke="#999999" points="1079,-19 1015,-19 1015,0 1079,0 1079,-19"/>
<text text-anchor="middle" x="1047" y="-7" font-family="Helvetica,sans-Serif" font-size="10.00">algorithm</text>
</a>
</g>
</g>
<!-- Node8&#45;&gt;Node10 -->
<g id="edge10_Node000008_Node000010" class="edge">
<title>Node8&#45;&gt;Node10</title>
<g id="a_edge10_Node000008_Node000010"><a xlink:title=" ">
<path fill="none" stroke="#63b8ff" d="M1047,-60.37C1047,-52.25 1047,-39.81 1047,-29.39"/>
<polygon fill="#63b8ff" stroke="#63b8ff" points="1050.5,-29.17 1047,-19.17 1043.5,-29.17 1050.5,-29.17"/>
</a>
</g>
</g>
<!-- Node15&#45;&gt;Node9 -->
<g id="edge17_Node000015_Node000009" class="edge">
<title>Node15&#45;&gt;Node9</title>
<g id="a_edge17_Node000015_Node000009"><a xlink:title=" ">
<path fill="none" stroke="#63b8ff" d="M834.83,-175.76C825.19,-162.57 805.42,-137.38 784,-121 723.35,-74.61 640.16,-39.76 594.13,-22.52"/>
<polygon fill="#63b8ff" stroke="#63b8ff" points="595.22,-19.19 584.62,-19.01 592.79,-25.76 595.22,-19.19"/>
</a>
</g>
</g>
<!-- Node15&#45;&gt;Node14 -->
<g id="edge18_Node000015_Node000014" class="edge">
<title>Node15&#45;&gt;Node14</title>
<g id="a_edge18_Node000015_Node000014"><a xlink:title=" ">
<path fill="none" stroke="#63b8ff" d="M826.86,-175.98C813.21,-167.77 792.31,-155.18 776.22,-145.49"/>
<polygon fill="#63b8ff" stroke="#63b8ff" points="777.77,-142.33 767.4,-140.17 774.16,-148.33 777.77,-142.33"/>
</a>
</g>
</g>
<!-- Node19 -->
<g id="Node000019" class="node">
<title>Node19</title>
<g id="a_Node000019"><a xlink:href="i__route__strategy_8h.html" target="_top" xlink:title=" ">
<polygon fill="white" stroke="#666666" points="920,-255.5 816,-255.5 816,-236.5 920,-236.5 920,-255.5"/>
<text text-anchor="middle" x="868" y="-243.5" font-family="Helvetica,sans-Serif" font-size="10.00">i_route_strategy.h</text>
</a>
</g>
</g>
<!-- Node18&#45;&gt;Node19 -->
<g id="edge29_Node000018_Node000019" class="edge">
<title>Node18&#45;&gt;Node19</title>
<g id="a_edge29_Node000018_Node000019"><a xlink:title=" ">
<path fill="none" stroke="#63b8ff" d="M862.03,-296.87C863,-288.75 864.49,-276.31 865.74,-265.89"/>
<polygon fill="#63b8ff" stroke="#63b8ff" points="869.25,-266.01 866.96,-255.67 862.3,-265.18 869.25,-266.01"/>
</a>
</g>
</g>
<!-- Node19&#45;&gt;Node4 -->
<g id="edge30_Node000019_Node000004" class="edge">
<title>Node19&#45;&gt;Node4</title>
<g id="a_edge30_Node000019_Node000004"><a xlink:title=" ">
<path fill="none" stroke="#63b8ff" d="M815.71,-244.76C744.55,-242.87 614.26,-233.8 511,-195 469.23,-179.3 453.29,-176.06 427,-140 417.49,-126.96 412.74,-109.39 410.37,-95.24"/>
<polygon fill="#63b8ff" stroke="#63b8ff" points="413.82,-94.65 408.98,-85.22 406.89,-95.61 413.82,-94.65"/>
</a>
</g>
</g>
<!-- Node19&#45;&gt;Node8 -->
<g id="edge32_Node000019_Node000008" class="edge">
<title>Node19&#45;&gt;Node8</title>
<g id="a_edge32_Node000019_Node000008"><a xlink:title=" ">
<path fill="none" stroke="#63b8ff" d="M906.27,-236.49C954.87,-225.32 1033.48,-205.85 1042,-195 1065.87,-164.6 1058.74,-115.92 1052.34,-89.51"/>
<polygon fill="#63b8ff" stroke="#63b8ff" points="1055.68,-88.44 1049.73,-79.67 1048.91,-90.23 1055.68,-88.44"/>
</a>
</g>
</g>
<!-- Node19&#45;&gt;Node15 -->
<g id="edge31_Node000019_Node000015" class="edge">
<title>Node19&#45;&gt;Node15</title>
<g id="a_edge31_Node000019_Node000015"><a xlink:title=" ">
<path fill="none" stroke="#63b8ff" d="M864.02,-236.37C860.15,-227.99 854.16,-215.01 849.26,-204.39"/>
<polygon fill="#63b8ff" stroke="#63b8ff" points="852.37,-202.78 845,-195.17 846.01,-205.71 852.37,-202.78"/>
</a>
</g>
</g>
<!-- Node20&#45;&gt;Node8 -->
<g id="edge40_Node000020_Node000008" class="edge">
<title>Node20&#45;&gt;Node8</title>
<g id="a_edge40_Node000020_Node000008"><a xlink:title=" ">
<path fill="none" stroke="#63b8ff" d="M1051.69,-238.26C1103.31,-230.82 1173.98,-216.91 1191,-195 1228.54,-146.68 1136.11,-103.29 1082.33,-83.05"/>
<polygon fill="#63b8ff" stroke="#63b8ff" points="1083.37,-79.7 1072.77,-79.54 1080.96,-86.28 1083.37,-79.7"/>
</a>
</g>
</g>
<!-- Node20&#45;&gt;Node13 -->
<g id="edge46_Node000020_Node000013" class="edge">
<title>Node20&#45;&gt;Node13</title>
<g id="a_edge46_Node000020_Node000013"><a xlink:title=" ">
<path fill="none" stroke="#63b8ff" d="M938.47,-232.09C900.83,-222.98 850.49,-209.79 807,-195 762.73,-179.94 713,-158.21 682.85,-144.48"/>
<polygon fill="#63b8ff" stroke="#63b8ff" points="683.96,-141.14 673.41,-140.15 681.04,-147.5 683.96,-141.14"/>
</a>
</g>
</g>
<!-- Node20&#45;&gt;Node14 -->
<g id="edge47_Node000020_Node000014" class="edge">
<title>Node20&#45;&gt;Node14</title>
<g id="a_edge47_Node000020_Node000014"><a xlink:title=" ">
<path fill="none" stroke="#63b8ff" d="M973.06,-230.84C949.45,-215.99 910.51,-192.54 875,-176 845.18,-162.11 809.72,-149.6 784.74,-141.41"/>
<polygon fill="#63b8ff" stroke="#63b8ff" points="785.65,-138.02 775.05,-138.27 783.49,-144.68 785.65,-138.02"/>
</a>
</g>
</g>
<!-- Node20&#45;&gt;Node17 -->
<g id="edge48_Node000020_Node000017" class="edge">
<title>Node20&#45;&gt;Node17</title>
<g id="a_edge48_Node000020_Node000017"><a xlink:title=" ">
<path fill="none" stroke="#63b8ff" d="M938.2,-232.49C935.09,-231.95 932.01,-231.45 929,-231 744.56,-203.6 694.05,-230.54 511,-195 477.34,-188.46 386.53,-159 337.12,-142.6"/>
<polygon fill="#63b8ff" stroke="#63b8ff" points="338.12,-139.24 327.53,-139.41 335.91,-145.89 338.12,-139.24"/>
</a>
</g>
</g>
<!-- Node21 -->
<g id="Node000021" class="node">
<title>Node21</title>
<g id="a_Node000021"><a xlink:href="csv__parser_8h.html" target="_top" xlink:title=" ">
<polygon fill="white" stroke="#666666" points="999.5,-195 922.5,-195 922.5,-176 999.5,-176 999.5,-195"/>
<text text-anchor="middle" x="961" y="-183" font-family="Helvetica,sans-Serif" font-size="10.00">csv_parser.h</text>
</a>
</g>
</g>
<!-- Node20&#45;&gt;Node21 -->
<g id="edge41_Node000020_Node000021" class="edge">
<title>Node20&#45;&gt;Node21</title>
<g id="a_edge41_Node000020_Node000021"><a xlink:title=" ">
<path fill="none" stroke="#63b8ff" d="M986.77,-230.84C982.09,-222.78 976.18,-212.62 971.2,-204.06"/>
<polygon fill="#63b8ff" stroke="#63b8ff" points="974.15,-202.15 966.09,-195.27 968.09,-205.67 974.15,-202.15"/>
</a>
</g>
</g>
<!-- Node23 -->
<g id="Node000023" class="node">
<title>Node23</title>
<g id="a_Node000023"><a xlink:title=" ">
<polygon fill="#e0e0e0" stroke="#999999" points="1182,-195 1144,-195 1144,-176 1182,-176 1182,-195"/>
<text text-anchor="middle" x="1163" y="-183" font-family="Helvetica,sans-Serif" font-size="10.00">map</text>
</a>
</g>
</g>
<!-- Node20&#45;&gt;Node23 -->
<g id="edge49_Node000020_Node000023" class="edge">
<title>Node20&#45;&gt;Node23</title>
<g id="a_edge49_Node000020_Node000023"><a xlink:title=" ">
<path fill="none" stroke="#63b8ff" d="M1035.24,-230.99C1065.71,-220.38 1106.84,-206.06 1134.11,-196.56"/>
<polygon fill="#63b8ff" stroke="#63b8ff" points="1135.53,-199.77 1143.83,-193.18 1133.23,-193.16 1135.53,-199.77"/>
</a>
</g>
</g>
<!-- Node24 -->
<g id="Node000024" class="node">
<title>Node24</title>
<g id="a_Node000024"><a xlink:title=" ">
<polygon fill="#e0e0e0" stroke="#999999" points="1126,-195 1094,-195 1094,-176 1126,-176 1126,-195"/>
<text text-anchor="middle" x="1110" y="-183" font-family="Helvetica,sans-Serif" font-size="10.00">set</text>
</a>
</g>
</g>
<!-- Node20&#45;&gt;Node24 -->
<g id="edge50_Node000020_Node000024" class="edge">
<title>Node20&#45;&gt;Node24</title>
<g id="a_edge50_Node000020_Node000024"><a xlink:title=" ">
<path fill="none" stroke="#63b8ff" d="M1022.55,-230.99C1041.44,-221.37 1066.33,-208.71 1084.73,-199.36"/>
<polygon fill="#63b8ff" stroke="#63b8ff" points="1086.36,-202.45 1093.69,-194.8 1083.19,-196.21 1086.36,-202.45"/>
</a>
</g>
</g>
<!-- Node21&#45;&gt;Node12 -->
<g id="edge43_Node000021_Node000012" class="edge">
<title>Node21&#45;&gt;Node12</title>
<g id="a_edge43_Node000021_Node000012"><a xlink:title=" ">
<path fill="none" stroke="#63b8ff" d="M938.51,-175.98C905.02,-163.4 839.99,-139.36 784,-121 739.71,-106.48 688.29,-91.44 654.11,-81.69"/>
<polygon fill="#63b8ff" stroke="#63b8ff" points="654.66,-78.21 644.09,-78.85 652.75,-84.95 654.66,-78.21"/>
</a>
</g>
</g>
<!-- Node21&#45;&gt;Node14 -->
<g id="edge44_Node000021_Node000014" class="edge">
<title>Node21&#45;&gt;Node14</title>
<g id="a_edge44_Node000021_Node000014"><a xlink:title=" ">
<path fill="none" stroke="#63b8ff" d="M927.58,-175.98C888.43,-166.01 824,-149.59 785.33,-139.74"/>
<polygon fill="#63b8ff" stroke="#63b8ff" points="785.7,-136.22 775.14,-137.14 783.97,-143 785.7,-136.22"/>
</a>
</g>
</g>
<!-- Node21&#45;&gt;Node17 -->
<g id="edge45_Node000021_Node000017" class="edge">
<title>Node21&#45;&gt;Node17</title>
<g id="a_edge45_Node000021_Node000017"><a xlink:title=" ">
<path fill="none" stroke="#63b8ff" d="M922.49,-180.52C907.65,-179.03 890.54,-177.37 875,-176 671.29,-158 426.35,-140.2 337.91,-133.9"/>
<polygon fill="#63b8ff" stroke="#63b8ff" points="337.9,-130.39 327.67,-133.17 337.4,-137.37 337.9,-130.39"/>
</a>
</g>
</g>
<!-- Node22 -->
<g id="Node000022" class="node">
<title>Node22</title>
<g id="a_Node000022"><a xlink:title=" ">
<polygon fill="#e0e0e0" stroke="#999999" points="985,-140 937,-140 937,-121 985,-121 985,-140"/>
<text text-anchor="middle" x="961" y="-128" font-family="Helvetica,sans-Serif" font-size="10.00">iosfwd</text>
</a>
</g>
</g>
<!-- Node21&#45;&gt;Node22 -->
<g id="edge42_Node000021_Node000022" class="edge">
<title>Node21&#45;&gt;Node22</title>
<g id="a_edge42_Node000021_Node000022"><a xlink:title=" ">
<path fill="none" stroke="#63b8ff" d="M961,-175.75C961,-168.8 961,-158.85 961,-150.13"/>
<polygon fill="#63b8ff" stroke="#63b8ff" points="964.5,-150.09 961,-140.09 957.5,-150.09 964.5,-150.09"/>
</a>
</g>
</g>
</g>
</svg>

<g id="navigator" transform="translate(0 0)" fill="#404254">
  <rect fill="#f2f5e9" fill-opacity="0.5" stroke="#606060" stroke-width=".5" x="0" y="0" width="60" height="60"/>
  <use id="zoomplus" xlink:href="#zoomPlus" x="17" y="9" onmousedown="handleZoom(evt,'in')"/>
  <use id="zoomminus" xlink:href="#zoomMin" x="42" y="9" onmousedown="handleZoom(evt,'out')"/>
  <use id="reset" xlink:href="#resetDef" x="30" y="36" onmousedown="handleReset()"/>
   <use id="arrowup" xlink:href="#arrowUp" x="0" y="0" onmousedown="handlePan(0,-1)"/>
  <use id="arrowright" xlink:href="#arrowRight" x="0" y="0" onmousedown="handlePan(1,0)"/>
  <use id="arrowdown" xlink:href="#arrowDown" x="0" y="0" onmousedown="handlePan(0,1)"/>
  <use id="arrowleft" xlink:href="#arrowLeft" x="0" y="0" onmousedown="handlePan(-1,0)"/>
</g>
<svg viewBox="0 0 15 15" width="100%" height="30px" preserveAspectRatio="xMaxYMin meet">
 <g id="arrow_out" transform="scale(0.3 0.3)">
  <a xlink:href="main_8cpp__incl_org.svg" target="_base">
   <rect id="button" ry="5" rx="5" y="6" x="6" height="38" width="38"
        fill="#f2f5e9" fill-opacity="0.5" stroke="#606060" stroke-width="1.0"/>
   <path id="arrow"
     d="M 11.500037,31.436501 C 11.940474,20.09759 22.043105,11.32322 32.158766,21.979434 L 37.068811,17.246167 C 37.068811,17.246167 37.088388,32 37.088388,32 L 22.160133,31.978069 C 22.160133,31.978069 26.997745,27.140456 26.997745,27.140456 C 18.528582,18.264221 13.291696,25.230495 11.500037,31.436501 z"
     style="fill:#404040;"/>
  </a>
 </g>
</svg>

<style type='text/css'>
<![CDATA[
[data-mouse-over-selected='false'] { opacity: 0.7; }
[data-mouse-over-selected='true']  { opacity: 1.0; }
]]>
</style>
<script type="application/ecmascript"><![CDATA[
document.addEventListener('DOMContentLoaded', (event) => {
  highlightEdges();
  highlightAdjacentNodes();
});
]]></script>
</svg>
