<?xml version="1.0" encoding="UTF-8" standalone="no"?>
<!DOCTYPE svg PUBLIC "-//W3C//DTD SVG 1.1//EN"
 "http://www.w3.org/Graphics/SVG/1.1/DTD/svg11.dtd">
<!-- Generated by graphviz version 2.43.0 (0)
 -->
<!-- Title: printRoute Pages: 1 -->
<svg width="276pt" height="138pt"
 viewBox="0.00 0.00 276.00 138.00" xmlns="http://www.w3.org/2000/svg" xmlns:xlink="http://www.w3.org/1999/xlink">
<g id="graph0" class="graph" transform="scale(1 1) rotate(0) translate(4 134)">
<title>printRoute</title>
<!-- Node1 -->
<g id="Node000001" class="node">
<title>Node1</title>
<g id="a_Node000001"><a xlink:title=" ">
<polygon fill="#999999" stroke="#666666" points="68,-74 0,-74 0,-55 68,-55 68,-74"/>
<text text-anchor="middle" x="34" y="-62" font-family="Helvetica,sans-Serif" font-size="10.00">printRoute</text>
</a>
</g>
</g>
<!-- Node2 -->
<g id="Node000002" class="node">
<title>Node2</title>
<g id="a_Node000002"><a xlink:href="main_8cpp.html#ac08bb43a6f01703516f41cc419bf38d4" target="_top" xlink:title=" ">
<polygon fill="white" stroke="#666666" points="232,-130 140,-130 140,-111 232,-111 232,-130"/>
<text text-anchor="middle" x="186" y="-118" font-family="Helvetica,sans-Serif" font-size="10.00">formatDuration</text>
</a>
</g>
</g>
<!-- Node1&#45;&gt;Node2 -->
<g id="edge1_Node000001_Node000002" class="edge">
<title>Node1&#45;&gt;Node2</title>
<g id="a_edge1_Node000001_Node000002"><a xlink:title=" ">
<path fill="none" stroke="#63b8ff" d="M49.49,-74.08C63.06,-82.66 84.17,-95.01 104,-102.5 112.23,-105.61 121.13,-108.25 129.93,-110.49"/>
<polygon fill="#63b8ff" stroke="#63b8ff" points="129.23,-113.92 139.77,-112.83 130.85,-107.11 129.23,-113.92"/>
</a>
</g>
</g>
<!-- Node3 -->
<g id="Node000003" class="node">
<title>Node3</title>
<g id="a_Node000003"><a xlink:href="classdomain_1_1Graph.html#a9010d53766badd06cc7d2a36bcca8c4a" target="_top" xlink:title="Возвращает все рёбра исходящие из узла.">
<polygon fill="white" stroke="#666666" points="268,-93 104,-93 104,-74 268,-74 268,-93"/>
<text text-anchor="middle" x="186" y="-81" font-family="Helvetica,sans-Serif" font-size="10.00">domain::Graph::getEdgesFrom</text>
</a>
</g>
</g>
<!-- Node1&#45;&gt;Node3 -->
<g id="edge2_Node000001_Node000003" class="edge">
<title>Node1&#45;&gt;Node3</title>
<g id="a_edge2_Node000001_Node000003"><a xlink:title=" ">
<path fill="none" stroke="#63b8ff" d="M68.29,-68.72C77.74,-69.91 88.48,-71.27 99.54,-72.67"/>
<polygon fill="#63b8ff" stroke="#63b8ff" points="99.39,-76.18 109.75,-73.97 100.27,-69.24 99.39,-76.18"/>
</a>
</g>
</g>
<!-- Node4 -->
<g id="Node000004" class="node">
<title>Node4</title>
<g id="a_Node000004"><a xlink:href="classdomain_1_1Graph.html#a17dc3667b7246c30e87ac24a5eb1c0ed" target="_top" xlink:title="Возвращает узел по ID.">
<polygon fill="white" stroke="#666666" points="254,-56 118,-56 118,-37 254,-37 254,-56"/>
<text text-anchor="middle" x="186" y="-44" font-family="Helvetica,sans-Serif" font-size="10.00">domain::Graph::getNode</text>
</a>
</g>
</g>
<!-- Node1&#45;&gt;Node4 -->
<g id="edge3_Node000001_Node000004" class="edge">
<title>Node1&#45;&gt;Node4</title>
<g id="a_edge3_Node000001_Node000004"><a xlink:title=" ">
<path fill="none" stroke="#63b8ff" d="M68.29,-60.51C80.1,-59.09 93.93,-57.43 107.85,-55.76"/>
<polygon fill="#63b8ff" stroke="#63b8ff" points="108.47,-59.21 117.99,-54.54 107.64,-52.26 108.47,-59.21"/>
</a>
</g>
</g>
<!-- Node5 -->
<g id="Node000005" class="node">
<title>Node5</title>
<g id="a_Node000005"><a xlink:href="main_8cpp.html#a3d920ff516a9f504666a55d48b5677fe" target="_top" xlink:title=" ">
<polygon fill="white" stroke="#666666" points="231,-19 141,-19 141,0 231,0 231,-19"/>
<text text-anchor="middle" x="186" y="-7" font-family="Helvetica,sans-Serif" font-size="10.00">transportName</text>
</a>
</g>
</g>
<!-- Node1&#45;&gt;Node5 -->
<g id="edge4_Node000001_Node000005" class="edge">
<title>Node1&#45;&gt;Node5</title>
<g id="a_edge4_Node000001_Node000005"><a xlink:title=" ">
<path fill="none" stroke="#63b8ff" d="M50.65,-54.88C64.3,-46.85 84.87,-35.6 104,-28.5 112.55,-25.32 121.81,-22.56 130.92,-20.19"/>
<polygon fill="#63b8ff" stroke="#63b8ff" points="131.81,-23.58 140.69,-17.79 130.14,-16.78 131.81,-23.58"/>
</a>
</g>
</g>
</g>
</svg>
