<?xml version="1.0" encoding="UTF-8" standalone="no"?>
<!DOCTYPE svg PUBLIC "-//W3C//DTD SVG 1.1//EN"
 "http://www.w3.org/Graphics/SVG/1.1/DTD/svg11.dtd">
<!-- Generated by graphviz version 2.43.0 (0)
 -->
<!-- Title: src/gui/map_widget.cpp Pages: 1 -->
<!--zoomable 478 -->

<svg id="main" version="1.1" xmlns="http://www.w3.org/2000/svg" xmlns:xlink="http://www.w3.org/1999/xlink" xml:space="preserve" onload="init(evt)">
<style type="text/css"><![CDATA[
.node, .edge {opacity: 0.7;}
.node.selected, .edge.selected {opacity: 1;}
.edge:hover path { stroke: red; }
.edge:hover polygon { stroke: red; fill: red; }
]]></style>

<defs>
  <circle id="rim" cx="0" cy="0" r="7"/>
  <circle id="rim2" cx="0" cy="0" r="3.5"/>
  <g id="zoomPlus">
    <use xlink:href="#rim" fill="#404040"><set attributeName="fill" to="#808080" begin="zoomplus.mouseover" end="zoomplus.mouseout"/></use>
    <path d="M-4,0h8M0,-4v8" fill="none" stroke="white" stroke-width="1.5" pointer-events="none"/>
  </g>
  <g id="zoomMin">
    <use xlink:href="#rim" fill="#404040"><set attributeName="fill" to="#808080" begin="zoomminus.mouseover" end="zoomminus.mouseout"/></use>
    <path d="M-4,0h8" fill="none" stroke="white" stroke-width="1.5" pointer-events="none"/>
  </g>
  <g id="arrowUp" transform="translate(30 24)">
    <use xlink:href="#rim"/>
    <path pointer-events="none" fill="none" stroke="white" stroke-width="1.5" d="M0,-3.0v7 M-2.5,-0.5L0,-3.0L2.5,-0.5"/>
  </g>
  <g id="arrowRight" transform="rotate(90) translate(36 -43)">
    <use xlink:href="#rim"/>
    <path pointer-events="none" fill="none" stroke="white" stroke-width="1.5" d="M0,-3.0v7 M-2.5,-0.5L0,-3.0L2.5,-0.5"/>
  </g>
  <g id="arrowDown" transform="rotate(180) translate(-30 -48)">
    <use xlink:href="#rim"/>
    <path pointer-events="none" fill="none" stroke="white" stroke-width="1.5" d="M0,-3.0v7 M-2.5,-0.5L0,-3.0L2.5,-0.5"/>
  </g>
  <g id="arrowLeft" transform="rotate(270) translate(-36 17)">
    <use xlink:href="#rim"/>
    <path pointer-events="none" fill="none" stroke="white" stroke-width="1.5" d="M0,-3.0v7 M-2.5,-0.5L0,-3.0L2.5,-0.5"/>
  </g>
  <g id="resetDef">
    <use xlink:href="#rim2" fill="#404040"><set attributeName="fill" to="#808080" begin="reset.mouseover" end="reset.mouseout"/></use>
  </g>
</defs>
<script type="application/ecmascript">
var viewWidth = 1048;
var viewHeight = 478;
var sectionId = 'dynsection-0';
</script>
<script type="application/ecmascript" xlink:href="svg.min.js"/>
<svg id="graph" class="graph">
<g id="viewport">
<title>src/gui/map_widget.cpp</title>
<!-- Node1 -->
<g id="Node000001" class="node">
<title>Node1</title>
<g id="a_Node000001"><a xlink:title=" ">
<polygon fill="#999999" stroke="#666666" points="927,-470 795,-470 795,-451 927,-451 927,-470"/>
<text text-anchor="middle" x="861" y="-458" font-family="Helvetica,sans-Serif" font-size="10.00">src/gui/map_widget.cpp</text>
</a>
</g>
</g>
<!-- Node2 -->
<g id="Node000002" class="node">
<title>Node2</title>
<g id="a_Node000002"><a xlink:href="map__widget_8h.html" target="_top" xlink:title=" ">
<polygon fill="white" stroke="#666666" points="750,-415 664,-415 664,-396 750,-396 750,-415"/>
<text text-anchor="middle" x="707" y="-403" font-family="Helvetica,sans-Serif" font-size="10.00">map_widget.h</text>
</a>
</g>
</g>
<!-- Node1&#45;&gt;Node2 -->
<g id="edge1_Node000001_Node000002" class="edge">
<title>Node1&#45;&gt;Node2</title>
<g id="a_edge1_Node000001_Node000002"><a xlink:title=" ">
<path fill="none" stroke="#63b8ff" d="M836.26,-450.98C810.63,-442.16 770.37,-428.31 741.59,-418.41"/>
<polygon fill="#63b8ff" stroke="#63b8ff" points="742.53,-415.03 731.94,-415.08 740.25,-421.65 742.53,-415.03"/>
</a>
</g>
</g>
<!-- Node27 -->
<g id="Node000027" class="node">
<title>Node27</title>
<g id="a_Node000027"><a xlink:title=" ">
<polygon fill="#e0e0e0" stroke="#999999" points="851.5,-415 768.5,-415 768.5,-396 851.5,-396 851.5,-415"/>
<text text-anchor="middle" x="810" y="-403" font-family="Helvetica,sans-Serif" font-size="10.00">QWheelEvent</text>
</a>
</g>
</g>
<!-- Node1&#45;&gt;Node27 -->
<g id="edge40_Node000001_Node000027" class="edge">
<title>Node1&#45;&gt;Node27</title>
<g id="a_edge40_Node000001_Node000027"><a xlink:title=" ">
<path fill="none" stroke="#63b8ff" d="M852.58,-450.75C845.23,-443.11 834.37,-431.82 825.46,-422.56"/>
<polygon fill="#63b8ff" stroke="#63b8ff" points="827.72,-419.87 818.26,-415.09 822.68,-424.72 827.72,-419.87"/>
</a>
</g>
</g>
<!-- Node28 -->
<g id="Node000028" class="node">
<title>Node28</title>
<g id="a_Node000028"><a xlink:title=" ">
<polygon fill="#e0e0e0" stroke="#999999" points="954,-415 870,-415 870,-396 954,-396 954,-415"/>
<text text-anchor="middle" x="912" y="-403" font-family="Helvetica,sans-Serif" font-size="10.00">QResizeEvent</text>
</a>
</g>
</g>
<!-- Node1&#45;&gt;Node28 -->
<g id="edge41_Node000001_Node000028" class="edge">
<title>Node1&#45;&gt;Node28</title>
<g id="a_edge41_Node000001_Node000028"><a xlink:title=" ">
<path fill="none" stroke="#63b8ff" d="M869.42,-450.75C876.77,-443.11 887.63,-431.82 896.54,-422.56"/>
<polygon fill="#63b8ff" stroke="#63b8ff" points="899.32,-424.72 903.74,-415.09 894.28,-419.87 899.32,-424.72"/>
</a>
</g>
</g>
<!-- Node29 -->
<g id="Node000029" class="node">
<title>Node29</title>
<g id="a_Node000029"><a xlink:title=" ">
<polygon fill="#e0e0e0" stroke="#999999" points="1040,-415 972,-415 972,-396 1040,-396 1040,-415"/>
<text text-anchor="middle" x="1006" y="-403" font-family="Helvetica,sans-Serif" font-size="10.00">QScrollBar</text>
</a>
</g>
</g>
<!-- Node1&#45;&gt;Node29 -->
<g id="edge42_Node000001_Node000029" class="edge">
<title>Node1&#45;&gt;Node29</title>
<g id="a_edge42_Node000001_Node000029"><a xlink:title=" ">
<path fill="none" stroke="#63b8ff" d="M884.3,-450.98C908.25,-442.23 945.78,-428.51 972.83,-418.62"/>
<polygon fill="#63b8ff" stroke="#63b8ff" points="974.09,-421.89 982.28,-415.17 971.69,-415.32 974.09,-421.89"/>
</a>
</g>
</g>
<!-- Node3 -->
<g id="Node000003" class="node">
<title>Node3</title>
<g id="a_Node000003"><a xlink:href="map__scene_8h.html" target="_top" xlink:title=" ">
<polygon fill="white" stroke="#666666" points="625.5,-360 544.5,-360 544.5,-341 625.5,-341 625.5,-360"/>
<text text-anchor="middle" x="585" y="-348" font-family="Helvetica,sans-Serif" font-size="10.00">map_scene.h</text>
</a>
</g>
</g>
<!-- Node2&#45;&gt;Node3 -->
<g id="edge2_Node000002_Node000003" class="edge">
<title>Node2&#45;&gt;Node3</title>
<g id="a_edge2_Node000002_Node000003"><a xlink:title=" ">
<path fill="none" stroke="#63b8ff" d="M687.4,-395.98C667.68,-387.42 637.05,-374.11 614.42,-364.28"/>
<polygon fill="#63b8ff" stroke="#63b8ff" points="615.52,-360.94 604.96,-360.17 612.74,-367.37 615.52,-360.94"/>
</a>
</g>
</g>
<!-- Node24 -->
<g id="Node000024" class="node">
<title>Node24</title>
<g id="a_Node000024"><a xlink:href="transport__legend_8h.html" target="_top" xlink:title=" ">
<polygon fill="white" stroke="#666666" points="761,-360 653,-360 653,-341 761,-341 761,-360"/>
<text text-anchor="middle" x="707" y="-348" font-family="Helvetica,sans-Serif" font-size="10.00">transport_legend.h</text>
</a>
</g>
</g>
<!-- Node2&#45;&gt;Node24 -->
<g id="edge37_Node000002_Node000024" class="edge">
<title>Node2&#45;&gt;Node24</title>
<g id="a_edge37_Node000002_Node000024"><a xlink:title=" ">
<path fill="none" stroke="#63b8ff" d="M707,-395.75C707,-388.8 707,-378.85 707,-370.13"/>
<polygon fill="#63b8ff" stroke="#63b8ff" points="710.5,-370.09 707,-360.09 703.5,-370.09 710.5,-370.09"/>
</a>
</g>
</g>
<!-- Node26 -->
<g id="Node000026" class="node">
<title>Node26</title>
<g id="a_Node000026"><a xlink:title=" ">
<polygon fill="#e0e0e0" stroke="#999999" points="870.5,-360 779.5,-360 779.5,-341 870.5,-341 870.5,-360"/>
<text text-anchor="middle" x="825" y="-348" font-family="Helvetica,sans-Serif" font-size="10.00">QGraphicsView</text>
</a>
</g>
</g>
<!-- Node2&#45;&gt;Node26 -->
<g id="edge39_Node000002_Node000026" class="edge">
<title>Node2&#45;&gt;Node26</title>
<g id="a_edge39_Node000002_Node000026"><a xlink:title=" ">
<path fill="none" stroke="#63b8ff" d="M725.96,-395.98C745.03,-387.42 774.66,-374.11 796.55,-364.28"/>
<polygon fill="#63b8ff" stroke="#63b8ff" points="798.01,-367.46 805.7,-360.17 795.14,-361.07 798.01,-367.46"/>
</a>
</g>
</g>
<!-- Node4 -->
<g id="Node000004" class="node">
<title>Node4</title>
<g id="a_Node000004"><a xlink:href="graph_8h.html" target="_top" xlink:title=" ">
<polygon fill="white" stroke="#666666" points="666.5,-239 573.5,-239 573.5,-220 666.5,-220 666.5,-239"/>
<text text-anchor="middle" x="620" y="-227" font-family="Helvetica,sans-Serif" font-size="10.00">domain/graph.h</text>
</a>
</g>
</g>
<!-- Node3&#45;&gt;Node4 -->
<g id="edge3_Node000003_Node000004" class="edge">
<title>Node3&#45;&gt;Node4</title>
<g id="a_edge3_Node000003_Node000004"><a xlink:title=" ">
<path fill="none" stroke="#63b8ff" d="M588.15,-340.69C591.31,-331.75 596.22,-317.49 600,-305 605.68,-286.2 611.42,-264.5 615.28,-249.38"/>
<polygon fill="#63b8ff" stroke="#63b8ff" points="618.78,-249.82 617.84,-239.27 611.99,-248.11 618.78,-249.82"/>
</a>
</g>
</g>
<!-- Node18 -->
<g id="Node000018" class="node">
<title>Node18</title>
<g id="a_Node000018"><a xlink:href="a__star__solver_8h.html" target="_top" xlink:title=" ">
<polygon fill="white" stroke="#666666" points="407,-305 303,-305 303,-275 407,-275 407,-305"/>
<text text-anchor="start" x="311" y="-293" font-family="Helvetica,sans-Serif" font-size="10.00">application/a_star</text>
<text text-anchor="middle" x="355" y="-282" font-family="Helvetica,sans-Serif" font-size="10.00">_solver.h</text>
</a>
</g>
</g>
<!-- Node3&#45;&gt;Node18 -->
<g id="edge22_Node000003_Node000018" class="edge">
<title>Node3&#45;&gt;Node18</title>
<g id="a_edge22_Node000003_Node000018"><a xlink:title=" ">
<path fill="none" stroke="#63b8ff" d="M551.56,-340.99C516.42,-332.06 460.35,-317.8 417.07,-306.79"/>
<polygon fill="#63b8ff" stroke="#63b8ff" points="417.76,-303.35 407.21,-304.28 416.04,-310.14 417.76,-303.35"/>
</a>
</g>
</g>
<!-- Node19 -->
<g id="Node000019" class="node">
<title>Node19</title>
<g id="a_Node000019"><a xlink:href="node__item_8h.html" target="_top" xlink:title=" ">
<polygon fill="white" stroke="#666666" points="855.5,-239 778.5,-239 778.5,-220 855.5,-220 855.5,-239"/>
<text text-anchor="middle" x="817" y="-227" font-family="Helvetica,sans-Serif" font-size="10.00">node_item.h</text>
</a>
</g>
</g>
<!-- Node3&#45;&gt;Node19 -->
<g id="edge30_Node000003_Node000019" class="edge">
<title>Node3&#45;&gt;Node19</title>
<g id="a_edge30_Node000003_Node000019"><a xlink:title=" ">
<path fill="none" stroke="#63b8ff" d="M593.34,-340.89C608.6,-325.59 642.62,-293.52 677,-275 705.69,-259.54 740.63,-248.42 768.43,-241.17"/>
<polygon fill="#63b8ff" stroke="#63b8ff" points="769.48,-244.51 778.32,-238.67 767.77,-237.73 769.48,-244.51"/>
</a>
</g>
</g>
<!-- Node22 -->
<g id="Node000022" class="node">
<title>Node22</title>
<g id="a_Node000022"><a xlink:title=" ">
<polygon fill="#e0e0e0" stroke="#999999" points="524,-299.5 428,-299.5 428,-280.5 524,-280.5 524,-299.5"/>
<text text-anchor="middle" x="476" y="-287.5" font-family="Helvetica,sans-Serif" font-size="10.00">QGraphicsScene</text>
</a>
</g>
</g>
<!-- Node3&#45;&gt;Node22 -->
<g id="edge35_Node000003_Node000022" class="edge">
<title>Node3&#45;&gt;Node22</title>
<g id="a_edge35_Node000003_Node000022"><a xlink:title=" ">
<path fill="none" stroke="#63b8ff" d="M568.92,-340.87C551.05,-331.28 521.96,-315.67 501.09,-304.47"/>
<polygon fill="#63b8ff" stroke="#63b8ff" points="502.62,-301.31 492.15,-299.67 499.31,-307.48 502.62,-301.31"/>
</a>
</g>
</g>
<!-- Node23 -->
<g id="Node000023" class="node">
<title>Node23</title>
<g id="a_Node000023"><a xlink:title=" ">
<polygon fill="#e0e0e0" stroke="#999999" points="591.5,-299.5 542.5,-299.5 542.5,-280.5 591.5,-280.5 591.5,-299.5"/>
<text text-anchor="middle" x="567" y="-287.5" font-family="Helvetica,sans-Serif" font-size="10.00">QHash</text>
</a>
</g>
</g>
<!-- Node3&#45;&gt;Node23 -->
<g id="edge36_Node000003_Node000023" class="edge">
<title>Node3&#45;&gt;Node23</title>
<g id="a_edge36_Node000003_Node000023"><a xlink:title=" ">
<path fill="none" stroke="#63b8ff" d="M582.34,-340.87C579.82,-332.66 575.94,-320.04 572.71,-309.55"/>
<polygon fill="#63b8ff" stroke="#63b8ff" points="575.95,-308.2 569.67,-299.67 569.26,-310.25 575.95,-308.2"/>
</a>
</g>
</g>
<!-- Node5 -->
<g id="Node000005" class="node">
<title>Node5</title>
<g id="a_Node000005"><a xlink:href="edge_8h.html" target="_top" xlink:title=" ">
<polygon fill="white" stroke="#666666" points="645,-184 595,-184 595,-165 645,-165 645,-184"/>
<text text-anchor="middle" x="620" y="-172" font-family="Helvetica,sans-Serif" font-size="10.00">edge.h</text>
</a>
</g>
</g>
<!-- Node4&#45;&gt;Node5 -->
<g id="edge4_Node000004_Node000005" class="edge">
<title>Node4&#45;&gt;Node5</title>
<g id="a_edge4_Node000004_Node000005"><a xlink:title=" ">
<path fill="none" stroke="#63b8ff" d="M620,-219.75C620,-212.8 620,-202.85 620,-194.13"/>
<polygon fill="#63b8ff" stroke="#63b8ff" points="623.5,-194.09 620,-184.09 616.5,-194.09 623.5,-194.09"/>
</a>
</g>
</g>
<!-- Node9 -->
<g id="Node000009" class="node">
<title>Node9</title>
<g id="a_Node000009"><a xlink:href="types_8h.html" target="_top" xlink:title=" ">
<polygon fill="white" stroke="#666666" points="687.5,-19 634.5,-19 634.5,0 687.5,0 687.5,-19"/>
<text text-anchor="middle" x="661" y="-7" font-family="Helvetica,sans-Serif" font-size="10.00">types.h</text>
</a>
</g>
</g>
<!-- Node4&#45;&gt;Node9 -->
<g id="edge18_Node000004_Node000009" class="edge">
<title>Node4&#45;&gt;Node9</title>
<g id="a_edge18_Node000004_Node000009"><a xlink:title=" ">
<path fill="none" stroke="#63b8ff" d="M633.35,-219.69C644.72,-211.59 660.78,-198.65 671,-184 685.97,-162.54 687.25,-154.73 692,-129 698.72,-92.57 681.94,-50.84 670.53,-27.9"/>
<polygon fill="#63b8ff" stroke="#63b8ff" points="673.63,-26.28 665.91,-19.03 667.42,-29.51 673.63,-26.28"/>
</a>
</g>
</g>
<!-- Node14 -->
<g id="Node000014" class="node">
<title>Node14</title>
<g id="a_Node000014"><a xlink:title=" ">
<polygon fill="#e0e0e0" stroke="#999999" points="683,-129 639,-129 639,-110 683,-110 683,-129"/>
<text text-anchor="middle" x="661" y="-117" font-family="Helvetica,sans-Serif" font-size="10.00">string</text>
</a>
</g>
</g>
<!-- Node4&#45;&gt;Node14 -->
<g id="edge21_Node000004_Node000014" class="edge">
<title>Node4&#45;&gt;Node14</title>
<g id="a_edge21_Node000004_Node000014"><a xlink:title=" ">
<path fill="none" stroke="#63b8ff" d="M628.93,-219.88C636.97,-211.52 648.36,-198.08 654,-184 659.74,-169.67 661.31,-152.14 661.54,-139.14"/>
<polygon fill="#63b8ff" stroke="#63b8ff" points="665.04,-139.04 661.48,-129.07 658.04,-139.09 665.04,-139.04"/>
</a>
</g>
</g>
<!-- Node15 -->
<g id="Node000015" class="node">
<title>Node15</title>
<g id="a_Node000015"><a xlink:href="node_8h.html" target="_top" xlink:title=" ">
<polygon fill="white" stroke="#666666" points="789,-184 739,-184 739,-165 789,-165 789,-184"/>
<text text-anchor="middle" x="764" y="-172" font-family="Helvetica,sans-Serif" font-size="10.00">node.h</text>
</a>
</g>
</g>
<!-- Node4&#45;&gt;Node15 -->
<g id="edge15_Node000004_Node000015" class="edge">
<title>Node4&#45;&gt;Node15</title>
<g id="a_edge15_Node000004_Node000015"><a xlink:title=" ">
<path fill="none" stroke="#63b8ff" d="M643.14,-219.98C666.82,-211.27 703.87,-197.63 730.71,-187.75"/>
<polygon fill="#63b8ff" stroke="#63b8ff" points="732.27,-190.91 740.44,-184.17 729.85,-184.34 732.27,-190.91"/>
</a>
</g>
</g>
<!-- Node16 -->
<g id="Node000016" class="node">
<title>Node16</title>
<g id="a_Node000016"><a xlink:title=" ">
<polygon fill="#e0e0e0" stroke="#999999" points="576.5,-184 483.5,-184 483.5,-165 576.5,-165 576.5,-184"/>
<text text-anchor="middle" x="530" y="-172" font-family="Helvetica,sans-Serif" font-size="10.00">unordered_map</text>
</a>
</g>
</g>
<!-- Node4&#45;&gt;Node16 -->
<g id="edge19_Node000004_Node000016" class="edge">
<title>Node4&#45;&gt;Node16</title>
<g id="a_edge19_Node000004_Node000016"><a xlink:title=" ">
<path fill="none" stroke="#63b8ff" d="M605.54,-219.98C591.58,-211.77 570.21,-199.18 553.75,-189.49"/>
<polygon fill="#63b8ff" stroke="#63b8ff" points="555.12,-186.23 544.72,-184.17 551.56,-192.26 555.12,-186.23"/>
</a>
</g>
</g>
<!-- Node17 -->
<g id="Node000017" class="node">
<title>Node17</title>
<g id="a_Node000017"><a xlink:title=" ">
<polygon fill="#e0e0e0" stroke="#999999" points="465.5,-184 418.5,-184 418.5,-165 465.5,-165 465.5,-184"/>
<text text-anchor="middle" x="442" y="-172" font-family="Helvetica,sans-Serif" font-size="10.00">vector</text>
</a>
</g>
</g>
<!-- Node4&#45;&gt;Node17 -->
<g id="edge20_Node000004_Node000017" class="edge">
<title>Node4&#45;&gt;Node17</title>
<g id="a_edge20_Node000004_Node000017"><a xlink:title=" ">
<path fill="none" stroke="#63b8ff" d="M591.4,-219.98C559.78,-210.57 508.91,-195.42 475.47,-185.46"/>
<polygon fill="#63b8ff" stroke="#63b8ff" points="476.27,-182.05 465.69,-182.55 474.27,-188.76 476.27,-182.05"/>
</a>
</g>
</g>
<!-- Node6 -->
<g id="Node000006" class="node">
<title>Node6</title>
<g id="a_Node000006"><a xlink:href="i__time__variant_8h.html" target="_top" xlink:title=" ">
<polygon fill="white" stroke="#666666" points="324,-129 228,-129 228,-110 324,-110 324,-129"/>
<text text-anchor="middle" x="276" y="-117" font-family="Helvetica,sans-Serif" font-size="10.00">i_time_variant.h</text>
</a>
</g>
</g>
<!-- Node5&#45;&gt;Node6 -->
<g id="edge5_Node000005_Node000006" class="edge">
<title>Node5&#45;&gt;Node6</title>
<g id="a_edge5_Node000005_Node000006"><a xlink:title=" ">
<path fill="none" stroke="#63b8ff" d="M594.83,-167.08C591.53,-166.33 588.19,-165.62 585,-165 498.17,-148.24 396.5,-134.77 334.18,-127.2"/>
<polygon fill="#63b8ff" stroke="#63b8ff" points="334.49,-123.71 324.14,-125.99 333.65,-130.66 334.49,-123.71"/>
</a>
</g>
</g>
<!-- Node5&#45;&gt;Node9 -->
<g id="edge12_Node000005_Node000009" class="edge">
<title>Node5&#45;&gt;Node9</title>
<g id="a_edge12_Node000005_Node000009"><a xlink:title=" ">
<path fill="none" stroke="#63b8ff" d="M620.96,-164.8C622.42,-152.49 625.49,-129.35 630,-110 636.73,-81.16 647.52,-48.52 654.44,-28.73"/>
<polygon fill="#63b8ff" stroke="#63b8ff" points="657.79,-29.76 657.83,-19.17 651.19,-27.42 657.79,-29.76"/>
</a>
</g>
</g>
<!-- Node13 -->
<g id="Node000013" class="node">
<title>Node13</title>
<g id="a_Node000013"><a xlink:title=" ">
<polygon fill="#e0e0e0" stroke="#999999" points="583,-129 525,-129 525,-110 583,-110 583,-129"/>
<text text-anchor="middle" x="554" y="-117" font-family="Helvetica,sans-Serif" font-size="10.00">memory</text>
</a>
</g>
</g>
<!-- Node5&#45;&gt;Node13 -->
<g id="edge13_Node000005_Node000013" class="edge">
<title>Node5&#45;&gt;Node13</title>
<g id="a_edge13_Node000005_Node000013"><a xlink:title=" ">
<path fill="none" stroke="#63b8ff" d="M609.4,-164.98C599.54,-157.07 584.65,-145.11 572.78,-135.58"/>
<polygon fill="#63b8ff" stroke="#63b8ff" points="574.79,-132.7 564.8,-129.17 570.4,-138.16 574.79,-132.7"/>
</a>
</g>
</g>
<!-- Node5&#45;&gt;Node14 -->
<g id="edge14_Node000005_Node000014" class="edge">
<title>Node5&#45;&gt;Node14</title>
<g id="a_edge14_Node000005_Node000014"><a xlink:title=" ">
<path fill="none" stroke="#63b8ff" d="M626.77,-164.75C632.56,-157.26 641.06,-146.28 648.14,-137.13"/>
<polygon fill="#63b8ff" stroke="#63b8ff" points="651.01,-139.14 654.36,-129.09 645.47,-134.86 651.01,-139.14"/>
</a>
</g>
</g>
<!-- Node7 -->
<g id="Node000007" class="node">
<title>Node7</title>
<g id="a_Node000007"><a xlink:href="combined__cost_8h.html" target="_top" xlink:title=" ">
<polygon fill="white" stroke="#666666" points="229.5,-74 130.5,-74 130.5,-55 229.5,-55 229.5,-74"/>
<text text-anchor="middle" x="180" y="-62" font-family="Helvetica,sans-Serif" font-size="10.00">combined_cost.h</text>
</a>
</g>
</g>
<!-- Node6&#45;&gt;Node7 -->
<g id="edge6_Node000006_Node000007" class="edge">
<title>Node6&#45;&gt;Node7</title>
<g id="a_edge6_Node000006_Node000007"><a xlink:title=" ">
<path fill="none" stroke="#63b8ff" d="M260.58,-109.98C245.55,-101.69 222.46,-88.94 204.84,-79.22"/>
<polygon fill="#63b8ff" stroke="#63b8ff" points="206.15,-75.94 195.7,-74.17 202.77,-82.07 206.15,-75.94"/>
</a>
</g>
</g>
<!-- Node8 -->
<g id="Node000008" class="node">
<title>Node8</title>
<g id="a_Node000008"><a xlink:href="transport__params_8h.html" target="_top" xlink:title=" ">
<polygon fill="white" stroke="#666666" points="112,-74 0,-74 0,-55 112,-55 112,-74"/>
<text text-anchor="middle" x="56" y="-62" font-family="Helvetica,sans-Serif" font-size="10.00">transport_params.h</text>
</a>
</g>
</g>
<!-- Node6&#45;&gt;Node8 -->
<g id="edge7_Node000006_Node000008" class="edge">
<title>Node6&#45;&gt;Node8</title>
<g id="a_edge7_Node000006_Node000008"><a xlink:title=" ">
<path fill="none" stroke="#63b8ff" d="M240.65,-109.98C202.84,-100.87 142.74,-86.4 101.43,-76.45"/>
<polygon fill="#63b8ff" stroke="#63b8ff" points="102.17,-73.02 91.62,-74.08 100.53,-79.83 102.17,-73.02"/>
</a>
</g>
</g>
<!-- Node11 -->
<g id="Node000011" class="node">
<title>Node11</title>
<g id="a_Node000011"><a xlink:title=" ">
<polygon fill="#e0e0e0" stroke="#999999" points="298,-74 248,-74 248,-55 298,-55 298,-74"/>
<text text-anchor="middle" x="273" y="-62" font-family="Helvetica,sans-Serif" font-size="10.00">chrono</text>
</a>
</g>
</g>
<!-- Node6&#45;&gt;Node11 -->
<g id="edge10_Node000006_Node000011" class="edge">
<title>Node6&#45;&gt;Node11</title>
<g id="a_edge10_Node000006_Node000011"><a xlink:title=" ">
<path fill="none" stroke="#63b8ff" d="M275.5,-109.75C275.11,-102.8 274.55,-92.85 274.05,-84.13"/>
<polygon fill="#63b8ff" stroke="#63b8ff" points="277.55,-83.88 273.49,-74.09 270.56,-84.27 277.55,-83.88"/>
</a>
</g>
</g>
<!-- Node12 -->
<g id="Node000012" class="node">
<title>Node12</title>
<g id="a_Node000012"><a xlink:title=" ">
<polygon fill="#e0e0e0" stroke="#999999" points="372,-74 316,-74 316,-55 372,-55 372,-74"/>
<text text-anchor="middle" x="344" y="-62" font-family="Helvetica,sans-Serif" font-size="10.00">optional</text>
</a>
</g>
</g>
<!-- Node6&#45;&gt;Node12 -->
<g id="edge11_Node000006_Node000012" class="edge">
<title>Node6&#45;&gt;Node12</title>
<g id="a_edge11_Node000006_Node000012"><a xlink:title=" ">
<path fill="none" stroke="#63b8ff" d="M286.93,-109.98C297.08,-102.07 312.42,-90.11 324.65,-80.58"/>
<polygon fill="#63b8ff" stroke="#63b8ff" points="327.14,-83.08 332.88,-74.17 322.84,-77.56 327.14,-83.08"/>
</a>
</g>
</g>
<!-- Node8&#45;&gt;Node9 -->
<g id="edge8_Node000008_Node000009" class="edge">
<title>Node8&#45;&gt;Node9</title>
<g id="a_edge8_Node000008_Node000009"><a xlink:title=" ">
<path fill="none" stroke="#63b8ff" d="M112.35,-55.96C115.27,-55.62 118.17,-55.3 121,-55 309.79,-34.89 536.55,-18.83 624.06,-12.93"/>
<polygon fill="#63b8ff" stroke="#63b8ff" points="624.52,-16.41 634.27,-12.25 624.06,-9.43 624.52,-16.41"/>
</a>
</g>
</g>
<!-- Node10 -->
<g id="Node000010" class="node">
<title>Node10</title>
<g id="a_Node000010"><a xlink:title=" ">
<polygon fill="#e0e0e0" stroke="#999999" points="88,-19 24,-19 24,0 88,0 88,-19"/>
<text text-anchor="middle" x="56" y="-7" font-family="Helvetica,sans-Serif" font-size="10.00">algorithm</text>
</a>
</g>
</g>
<!-- Node8&#45;&gt;Node10 -->
<g id="edge9_Node000008_Node000010" class="edge">
<title>Node8&#45;&gt;Node10</title>
<g id="a_edge9_Node000008_Node000010"><a xlink:title=" ">
<path fill="none" stroke="#63b8ff" d="M56,-54.75C56,-47.8 56,-37.85 56,-29.13"/>
<polygon fill="#63b8ff" stroke="#63b8ff" points="59.5,-29.09 56,-19.09 52.5,-29.09 59.5,-29.09"/>
</a>
</g>
</g>
<!-- Node15&#45;&gt;Node9 -->
<g id="edge16_Node000015_Node000009" class="edge">
<title>Node15&#45;&gt;Node9</title>
<g id="a_edge16_Node000015_Node000009"><a xlink:title=" ">
<path fill="none" stroke="#63b8ff" d="M763.06,-164.9C760.4,-144.11 751.28,-90.25 725,-55 715.37,-42.08 700.85,-31.55 688.07,-23.98"/>
<polygon fill="#63b8ff" stroke="#63b8ff" points="689.61,-20.83 679.17,-19 686.19,-26.94 689.61,-20.83"/>
</a>
</g>
</g>
<!-- Node15&#45;&gt;Node14 -->
<g id="edge17_Node000015_Node000014" class="edge">
<title>Node15&#45;&gt;Node14</title>
<g id="a_edge17_Node000015_Node000014"><a xlink:title=" ">
<path fill="none" stroke="#63b8ff" d="M747.45,-164.98C731.11,-156.57 705.87,-143.59 686.87,-133.81"/>
<polygon fill="#63b8ff" stroke="#63b8ff" points="688.34,-130.63 677.85,-129.17 685.14,-136.86 688.34,-130.63"/>
</a>
</g>
</g>
<!-- Node18&#45;&gt;Node4 -->
<g id="edge24_Node000018_Node000004" class="edge">
<title>Node18&#45;&gt;Node4</title>
<g id="a_edge24_Node000018_Node000004"><a xlink:title=" ">
<path fill="none" stroke="#63b8ff" d="M407.04,-277.51C454.78,-266.97 524.96,-251.48 571.54,-241.2"/>
<polygon fill="#63b8ff" stroke="#63b8ff" points="572.39,-244.59 581.4,-239.02 570.88,-237.76 572.39,-244.59"/>
</a>
</g>
</g>
<!-- Node18&#45;&gt;Node7 -->
<g id="edge23_Node000018_Node000007" class="edge">
<title>Node18&#45;&gt;Node7</title>
<g id="a_edge23_Node000018_Node000007"><a xlink:title=" ">
<path fill="none" stroke="#63b8ff" d="M327,-274.8C310.81,-265.81 290.62,-253.22 275,-239 226.2,-194.56 197.13,-119.05 185.67,-84.18"/>
<polygon fill="#63b8ff" stroke="#63b8ff" points="188.92,-82.85 182.56,-74.37 182.24,-84.96 188.92,-82.85"/>
</a>
</g>
</g>
<!-- Node18&#45;&gt;Node8 -->
<g id="edge25_Node000018_Node000008" class="edge">
<title>Node18&#45;&gt;Node8</title>
<g id="a_edge25_Node000018_Node000008"><a xlink:title=" ">
<path fill="none" stroke="#63b8ff" d="M321.41,-274.79C301.42,-265.72 275.96,-253.05 255,-239 180.58,-189.14 103.81,-114.29 71.65,-81.66"/>
<polygon fill="#63b8ff" stroke="#63b8ff" points="73.96,-79.02 64.46,-74.32 68.95,-83.92 73.96,-79.02"/>
</a>
</g>
</g>
<!-- Node18&#45;&gt;Node9 -->
<g id="edge26_Node000018_Node000009" class="edge">
<title>Node18&#45;&gt;Node9</title>
<g id="a_edge26_Node000018_Node000009"><a xlink:title=" ">
<path fill="none" stroke="#63b8ff" d="M358.18,-274.85C364.32,-250.12 379.88,-198.49 409,-165 471.48,-93.15 575.77,-44.29 628.44,-22.84"/>
<polygon fill="#63b8ff" stroke="#63b8ff" points="629.97,-26 637.96,-19.04 627.37,-19.5 629.97,-26"/>
</a>
</g>
</g>
<!-- Node18&#45;&gt;Node11 -->
<g id="edge27_Node000018_Node000011" class="edge">
<title>Node18&#45;&gt;Node11</title>
<g id="a_edge27_Node000018_Node000011"><a xlink:title=" ">
<path fill="none" stroke="#63b8ff" d="M336.32,-274.75C304.91,-249.46 242.65,-193.33 219,-129 216.09,-121.07 215.4,-117.64 219,-110 225.01,-97.26 236.66,-86.92 247.61,-79.44"/>
<polygon fill="#63b8ff" stroke="#63b8ff" points="249.54,-82.36 256.11,-74.05 245.79,-76.44 249.54,-82.36"/>
</a>
</g>
</g>
<!-- Node18&#45;&gt;Node12 -->
<g id="edge28_Node000018_Node000012" class="edge">
<title>Node18&#45;&gt;Node12</title>
<g id="a_edge28_Node000018_Node000012"><a xlink:title=" ">
<path fill="none" stroke="#63b8ff" d="M354.3,-274.68C352.38,-235.76 347.08,-128.07 344.93,-84.33"/>
<polygon fill="#63b8ff" stroke="#63b8ff" points="348.42,-84.05 344.43,-74.23 341.43,-84.39 348.42,-84.05"/>
</a>
</g>
</g>
<!-- Node18&#45;&gt;Node17 -->
<g id="edge29_Node000018_Node000017" class="edge">
<title>Node18&#45;&gt;Node17</title>
<g id="a_edge29_Node000018_Node000017"><a xlink:title=" ">
<path fill="none" stroke="#63b8ff" d="M370.55,-274.97C380.7,-265.38 393.9,-252.09 404,-239 415.26,-224.41 425.83,-206.24 432.95,-193.07"/>
<polygon fill="#63b8ff" stroke="#63b8ff" points="436.1,-194.6 437.68,-184.13 429.91,-191.33 436.1,-194.6"/>
</a>
</g>
</g>
<!-- Node19&#45;&gt;Node9 -->
<g id="edge32_Node000019_Node000009" class="edge">
<title>Node19&#45;&gt;Node9</title>
<g id="a_edge32_Node000019_Node000009"><a xlink:title=" ">
<path fill="none" stroke="#63b8ff" d="M815.67,-219.7C811.03,-191.92 793.17,-105.05 745,-55 731.41,-40.89 712.37,-30.29 695.84,-22.99"/>
<polygon fill="#63b8ff" stroke="#63b8ff" points="697.04,-19.7 686.47,-19.07 694.34,-26.16 697.04,-19.7"/>
</a>
</g>
</g>
<!-- Node19&#45;&gt;Node15 -->
<g id="edge31_Node000019_Node000015" class="edge">
<title>Node19&#45;&gt;Node15</title>
<g id="a_edge31_Node000019_Node000015"><a xlink:title=" ">
<path fill="none" stroke="#63b8ff" d="M808.25,-219.75C800.53,-212.03 789.1,-200.6 779.78,-191.28"/>
<polygon fill="#63b8ff" stroke="#63b8ff" points="782.14,-188.69 772.59,-184.09 777.19,-193.64 782.14,-188.69"/>
</a>
</g>
</g>
<!-- Node20 -->
<g id="Node000020" class="node">
<title>Node20</title>
<g id="a_Node000020"><a xlink:title=" ">
<polygon fill="#e0e0e0" stroke="#999999" points="1011,-184 913,-184 913,-165 1011,-165 1011,-184"/>
<text text-anchor="middle" x="962" y="-172" font-family="Helvetica,sans-Serif" font-size="10.00">QGraphicsObject</text>
</a>
</g>
</g>
<!-- Node19&#45;&gt;Node20 -->
<g id="edge33_Node000019_Node000020" class="edge">
<title>Node19&#45;&gt;Node20</title>
<g id="a_edge33_Node000019_Node000020"><a xlink:title=" ">
<path fill="none" stroke="#63b8ff" d="M840.3,-219.98C864.25,-211.23 901.78,-197.51 928.83,-187.62"/>
<polygon fill="#63b8ff" stroke="#63b8ff" points="930.09,-190.89 938.28,-184.17 927.69,-184.32 930.09,-190.89"/>
</a>
</g>
</g>
<!-- Node21 -->
<g id="Node000021" class="node">
<title>Node21</title>
<g id="a_Node000021"><a xlink:title=" ">
<polygon fill="#e0e0e0" stroke="#999999" points="895,-184 845,-184 845,-165 895,-165 895,-184"/>
<text text-anchor="middle" x="870" y="-172" font-family="Helvetica,sans-Serif" font-size="10.00">QColor</text>
</a>
</g>
</g>
<!-- Node19&#45;&gt;Node21 -->
<g id="edge34_Node000019_Node000021" class="edge">
<title>Node19&#45;&gt;Node21</title>
<g id="a_edge34_Node000019_Node000021"><a xlink:title=" ">
<path fill="none" stroke="#63b8ff" d="M825.75,-219.75C833.47,-212.03 844.9,-200.6 854.22,-191.28"/>
<polygon fill="#63b8ff" stroke="#63b8ff" points="856.81,-193.64 861.41,-184.09 851.86,-188.69 856.81,-193.64"/>
</a>
</g>
</g>
<!-- Node25 -->
<g id="Node000025" class="node">
<title>Node25</title>
<g id="a_Node000025"><a xlink:title=" ">
<polygon fill="#e0e0e0" stroke="#999999" points="745.5,-299.5 686.5,-299.5 686.5,-280.5 745.5,-280.5 745.5,-299.5"/>
<text text-anchor="middle" x="716" y="-287.5" font-family="Helvetica,sans-Serif" font-size="10.00">QWidget</text>
</a>
</g>
</g>
<!-- Node24&#45;&gt;Node25 -->
<g id="edge38_Node000024_Node000025" class="edge">
<title>Node24&#45;&gt;Node25</title>
<g id="a_edge38_Node000024_Node000025"><a xlink:title=" ">
<path fill="none" stroke="#63b8ff" d="M708.33,-340.87C709.59,-332.66 711.53,-320.04 713.15,-309.55"/>
<polygon fill="#63b8ff" stroke="#63b8ff" points="716.61,-310.08 714.67,-299.67 709.69,-309.02 716.61,-310.08"/>
</a>
</g>
</g>
</g>
</svg>

<g id="navigator" transform="translate(0 0)" fill="#404254">
  <rect fill="#f2f5e9" fill-opacity="0.5" stroke="#606060" stroke-width=".5" x="0" y="0" width="60" height="60"/>
  <use id="zoomplus" xlink:href="#zoomPlus" x="17" y="9" onmousedown="handleZoom(evt,'in')"/>
  <use id="zoomminus" xlink:href="#zoomMin" x="42" y="9" onmousedown="handleZoom(evt,'out')"/>
  <use id="reset" xlink:href="#resetDef" x="30" y="36" onmousedown="handleReset()"/>
   <use id="arrowup" xlink:href="#arrowUp" x="0" y="0" onmousedown="handlePan(0,-1)"/>
  <use id="arrowright" xlink:href="#arrowRight" x="0" y="0" onmousedown="handlePan(1,0)"/>
  <use id="arrowdown" xlink:href="#arrowDown" x="0" y="0" onmousedown="handlePan(0,1)"/>
  <use id="arrowleft" xlink:href="#arrowLeft" x="0" y="0" onmousedown="handlePan(-1,0)"/>
</g>
<svg viewBox="0 0 15 15" width="100%" height="30px" preserveAspectRatio="xMaxYMin meet">
 <g id="arrow_out" transform="scale(0.3 0.3)">
  <a xlink:href="map__widget_8cpp__incl_org.svg" target="_base">
   <rect id="button" ry="5" rx="5" y="6" x="6" height="38" width="38"
        fill="#f2f5e9" fill-opacity="0.5" stroke="#606060" stroke-width="1.0"/>
   <path id="arrow"
     d="M 11.500037,31.436501 C 11.940474,20.09759 22.043105,11.32322 32.158766,21.979434 L 37.068811,17.246167 C 37.068811,17.246167 37.088388,32 37.088388,32 L 22.160133,31.978069 C 22.160133,31.978069 26.997745,27.140456 26.997745,27.140456 C 18.528582,18.264221 13.291696,25.230495 11.500037,31.436501 z"
     style="fill:#404040;"/>
  </a>
 </g>
</svg>

<style type='text/css'>
<![CDATA[
[data-mouse-over-selected='false'] { opacity: 0.7; }
[data-mouse-over-selected='true']  { opacity: 1.0; }
]]>
</style>
<script type="application/ecmascript"><![CDATA[
document.addEventListener('DOMContentLoaded', (event) => {
  highlightEdges();
  highlightAdjacentNodes();
});
]]></script>
</svg>
