<?xml version="1.0" encoding="UTF-8" standalone="no"?>
<!DOCTYPE svg PUBLIC "-//W3C//DTD SVG 1.1//EN"
 "http://www.w3.org/Graphics/SVG/1.1/DTD/svg11.dtd">
<!-- Generated by graphviz version 2.43.0 (0)
 -->
<!-- Title: include/domain/node.h Pages: 1 -->
<svg width="136pt" height="82pt"
 viewBox="0.00 0.00 136.00 82.00" xmlns="http://www.w3.org/2000/svg" xmlns:xlink="http://www.w3.org/1999/xlink">
<g id="graph0" class="graph" transform="scale(1 1) rotate(0) translate(4 78)">
<title>include/domain/node.h</title>
<!-- Node1 -->
<g id="Node000001" class="node">
<title>Node1</title>
<g id="a_Node000001"><a xlink:title=" ">
<polygon fill="#999999" stroke="#666666" points="128,-74 0,-74 0,-55 128,-55 128,-74"/>
<text text-anchor="middle" x="64" y="-62" font-family="Helvetica,sans-Serif" font-size="10.00">include/domain/node.h</text>
</a>
</g>
</g>
<!-- Node2 -->
<g id="Node000002" class="node">
<title>Node2</title>
<g id="a_Node000002"><a xlink:href="types_8h.html" target="_top" xlink:title=" ">
<polygon fill="white" stroke="#666666" points="57.5,-19 4.5,-19 4.5,0 57.5,0 57.5,-19"/>
<text text-anchor="middle" x="31" y="-7" font-family="Helvetica,sans-Serif" font-size="10.00">types.h</text>
</a>
</g>
</g>
<!-- Node1&#45;&gt;Node2 -->
<g id="edge1_Node000001_Node000002" class="edge">
<title>Node1&#45;&gt;Node2</title>
<g id="a_edge1_Node000001_Node000002"><a xlink:title=" ">
<path fill="none" stroke="#63b8ff" d="M58.55,-54.75C53.99,-47.42 47.33,-36.73 41.71,-27.7"/>
<polygon fill="#63b8ff" stroke="#63b8ff" points="44.6,-25.73 36.35,-19.09 38.66,-29.43 44.6,-25.73"/>
</a>
</g>
</g>
<!-- Node3 -->
<g id="Node000003" class="node">
<title>Node3</title>
<g id="a_Node000003"><a xlink:title=" ">
<polygon fill="#e0e0e0" stroke="#999999" points="120,-19 76,-19 76,0 120,0 120,-19"/>
<text text-anchor="middle" x="98" y="-7" font-family="Helvetica,sans-Serif" font-size="10.00">string</text>
</a>
</g>
</g>
<!-- Node1&#45;&gt;Node3 -->
<g id="edge2_Node000001_Node000003" class="edge">
<title>Node1&#45;&gt;Node3</title>
<g id="a_edge2_Node000001_Node000003"><a xlink:title=" ">
<path fill="none" stroke="#63b8ff" d="M69.61,-54.75C74.32,-47.42 81.17,-36.73 86.97,-27.7"/>
<polygon fill="#63b8ff" stroke="#63b8ff" points="90.04,-29.4 92.49,-19.09 84.14,-25.62 90.04,-29.4"/>
</a>
</g>
</g>
</g>
</svg>
