<?xml version="1.0" encoding="UTF-8" standalone="no"?>
<!DOCTYPE svg PUBLIC "-//W3C//DTD SVG 1.1//EN"
 "http://www.w3.org/Graphics/SVG/1.1/DTD/svg11.dtd">
<!-- Generated by graphviz version 2.43.0 (0)
 -->
<!-- Title: src/domain/time_variants.cpp Pages: 1 -->
<svg width="648pt" height="258pt"
 viewBox="0.00 0.00 648.00 258.00" xmlns="http://www.w3.org/2000/svg" xmlns:xlink="http://www.w3.org/1999/xlink">
<g id="graph0" class="graph" transform="scale(1 1) rotate(0) translate(4 254)">
<title>src/domain/time_variants.cpp</title>
<!-- Node1 -->
<g id="Node000001" class="node">
<title>Node1</title>
<g id="a_Node000001"><a xlink:title=" ">
<polygon fill="#999999" stroke="#666666" points="339.5,-250 178.5,-250 178.5,-231 339.5,-231 339.5,-250"/>
<text text-anchor="middle" x="259" y="-238" font-family="Helvetica,sans-Serif" font-size="10.00">src/domain/time_variants.cpp</text>
</a>
</g>
</g>
<!-- Node2 -->
<g id="Node000002" class="node">
<title>Node2</title>
<g id="a_Node000002"><a xlink:href="time__variants_8h.html" target="_top" xlink:title=" ">
<polygon fill="white" stroke="#666666" points="265.5,-195 132.5,-195 132.5,-176 265.5,-176 265.5,-195"/>
<text text-anchor="middle" x="199" y="-183" font-family="Helvetica,sans-Serif" font-size="10.00">domain/time_variants.h</text>
</a>
</g>
</g>
<!-- Node1&#45;&gt;Node2 -->
<g id="edge1_Node000001_Node000002" class="edge">
<title>Node1&#45;&gt;Node2</title>
<g id="a_edge1_Node000001_Node000002"><a xlink:title=" ">
<path fill="none" stroke="#63b8ff" d="M249.36,-230.98C240.49,-223.15 227.13,-211.34 216.39,-201.86"/>
<polygon fill="#63b8ff" stroke="#63b8ff" points="218.63,-199.17 208.82,-195.17 213.99,-204.41 218.63,-199.17"/>
</a>
</g>
</g>
<!-- Node8 -->
<g id="Node000008" class="node">
<title>Node8</title>
<g id="a_Node000008"><a xlink:title=" ">
<polygon fill="#e0e0e0" stroke="#999999" points="50,-74 0,-74 0,-55 50,-55 50,-74"/>
<text text-anchor="middle" x="25" y="-62" font-family="Helvetica,sans-Serif" font-size="10.00">chrono</text>
</a>
</g>
</g>
<!-- Node1&#45;&gt;Node8 -->
<g id="edge21_Node000001_Node000008" class="edge">
<title>Node1&#45;&gt;Node8</title>
<g id="a_edge21_Node000001_Node000008"><a xlink:title=" ">
<path fill="none" stroke="#63b8ff" d="M212.73,-230.98C185.02,-224.33 150.04,-213.1 123,-195 79.6,-165.94 47.69,-111.13 33.37,-83.05"/>
<polygon fill="#63b8ff" stroke="#63b8ff" points="36.47,-81.42 28.9,-74.01 30.2,-84.53 36.47,-81.42"/>
</a>
</g>
</g>
<!-- Node11 -->
<g id="Node000011" class="node">
<title>Node11</title>
<g id="a_Node000011"><a xlink:href="i__route__strategy_8h.html" target="_top" xlink:title=" ">
<polygon fill="white" stroke="#666666" points="374.5,-140 267.5,-140 267.5,-110 374.5,-110 374.5,-140"/>
<text text-anchor="start" x="275.5" y="-128" font-family="Helvetica,sans-Serif" font-size="10.00">application/i_route</text>
<text text-anchor="middle" x="321" y="-117" font-family="Helvetica,sans-Serif" font-size="10.00">_strategy.h</text>
</a>
</g>
</g>
<!-- Node1&#45;&gt;Node11 -->
<g id="edge10_Node000001_Node000011" class="edge">
<title>Node1&#45;&gt;Node11</title>
<g id="a_edge10_Node000001_Node000011"><a xlink:title=" ">
<path fill="none" stroke="#63b8ff" d="M263.66,-230.97C273.05,-213.78 294.52,-174.47 308.36,-149.13"/>
<polygon fill="#63b8ff" stroke="#63b8ff" points="311.53,-150.64 313.25,-140.18 305.39,-147.28 311.53,-150.64"/>
</a>
</g>
</g>
<!-- Node14 -->
<g id="Node000014" class="node">
<title>Node14</title>
<g id="a_Node000014"><a xlink:href="edge_8h.html" target="_top" xlink:title=" ">
<polygon fill="white" stroke="#666666" points="560.5,-195 471.5,-195 471.5,-176 560.5,-176 560.5,-195"/>
<text text-anchor="middle" x="516" y="-183" font-family="Helvetica,sans-Serif" font-size="10.00">domain/edge.h</text>
</a>
</g>
</g>
<!-- Node1&#45;&gt;Node14 -->
<g id="edge16_Node000001_Node000014" class="edge">
<title>Node1&#45;&gt;Node14</title>
<g id="a_edge16_Node000001_Node000014"><a xlink:title=" ">
<path fill="none" stroke="#63b8ff" d="M300.29,-230.98C344.93,-221.78 416.16,-207.09 464.45,-197.13"/>
<polygon fill="#63b8ff" stroke="#63b8ff" points="465.3,-200.53 474.38,-195.08 463.88,-193.67 465.3,-200.53"/>
</a>
</g>
</g>
<!-- Node3 -->
<g id="Node000003" class="node">
<title>Node3</title>
<g id="a_Node000003"><a xlink:href="i__time__variant_8h.html" target="_top" xlink:title=" ">
<polygon fill="white" stroke="#666666" points="247,-134.5 151,-134.5 151,-115.5 247,-115.5 247,-134.5"/>
<text text-anchor="middle" x="199" y="-122.5" font-family="Helvetica,sans-Serif" font-size="10.00">i_time_variant.h</text>
</a>
</g>
</g>
<!-- Node2&#45;&gt;Node3 -->
<g id="edge2_Node000002_Node000003" class="edge">
<title>Node2&#45;&gt;Node3</title>
<g id="a_edge2_Node000002_Node000003"><a xlink:title=" ">
<path fill="none" stroke="#63b8ff" d="M199,-175.87C199,-167.75 199,-155.31 199,-144.89"/>
<polygon fill="#63b8ff" stroke="#63b8ff" points="202.5,-144.67 199,-134.67 195.5,-144.67 202.5,-144.67"/>
</a>
</g>
</g>
<!-- Node10 -->
<g id="Node000010" class="node">
<title>Node10</title>
<g id="a_Node000010"><a xlink:title=" ">
<polygon fill="#e0e0e0" stroke="#999999" points="132.5,-134.5 85.5,-134.5 85.5,-115.5 132.5,-115.5 132.5,-134.5"/>
<text text-anchor="middle" x="109" y="-122.5" font-family="Helvetica,sans-Serif" font-size="10.00">vector</text>
</a>
</g>
</g>
<!-- Node2&#45;&gt;Node10 -->
<g id="edge9_Node000002_Node000010" class="edge">
<title>Node2&#45;&gt;Node10</title>
<g id="a_edge9_Node000002_Node000010"><a xlink:title=" ">
<path fill="none" stroke="#63b8ff" d="M185.72,-175.87C171.36,-166.54 148.24,-151.51 131.13,-140.38"/>
<polygon fill="#63b8ff" stroke="#63b8ff" points="132.63,-137.18 122.33,-134.67 128.81,-143.05 132.63,-137.18"/>
</a>
</g>
</g>
<!-- Node4 -->
<g id="Node000004" class="node">
<title>Node4</title>
<g id="a_Node000004"><a xlink:href="combined__cost_8h.html" target="_top" xlink:title=" ">
<polygon fill="white" stroke="#666666" points="371.5,-74 272.5,-74 272.5,-55 371.5,-55 371.5,-74"/>
<text text-anchor="middle" x="322" y="-62" font-family="Helvetica,sans-Serif" font-size="10.00">combined_cost.h</text>
</a>
</g>
</g>
<!-- Node3&#45;&gt;Node4 -->
<g id="edge3_Node000003_Node000004" class="edge">
<title>Node3&#45;&gt;Node4</title>
<g id="a_edge3_Node000003_Node000004"><a xlink:title=" ">
<path fill="none" stroke="#63b8ff" d="M216.89,-115.49C237.38,-105.75 271.19,-89.66 294.92,-78.38"/>
<polygon fill="#63b8ff" stroke="#63b8ff" points="296.57,-81.47 304.09,-74.02 293.56,-75.15 296.57,-81.47"/>
</a>
</g>
</g>
<!-- Node5 -->
<g id="Node000005" class="node">
<title>Node5</title>
<g id="a_Node000005"><a xlink:href="transport__params_8h.html" target="_top" xlink:title=" ">
<polygon fill="white" stroke="#666666" points="254,-74 142,-74 142,-55 254,-55 254,-74"/>
<text text-anchor="middle" x="198" y="-62" font-family="Helvetica,sans-Serif" font-size="10.00">transport_params.h</text>
</a>
</g>
</g>
<!-- Node3&#45;&gt;Node5 -->
<g id="edge4_Node000003_Node000005" class="edge">
<title>Node3&#45;&gt;Node5</title>
<g id="a_edge4_Node000003_Node000005"><a xlink:title=" ">
<path fill="none" stroke="#63b8ff" d="M198.85,-115.37C198.71,-107.25 198.5,-94.81 198.32,-84.39"/>
<polygon fill="#63b8ff" stroke="#63b8ff" points="201.82,-84.11 198.15,-74.17 194.82,-84.23 201.82,-84.11"/>
</a>
</g>
</g>
<!-- Node3&#45;&gt;Node8 -->
<g id="edge7_Node000003_Node000008" class="edge">
<title>Node3&#45;&gt;Node8</title>
<g id="a_edge7_Node000003_Node000008"><a xlink:title=" ">
<path fill="none" stroke="#63b8ff" d="M173.7,-115.49C143.72,-105.41 93.59,-88.56 59.93,-77.24"/>
<polygon fill="#63b8ff" stroke="#63b8ff" points="60.64,-73.79 50.05,-73.92 58.41,-80.43 60.64,-73.79"/>
</a>
</g>
</g>
<!-- Node9 -->
<g id="Node000009" class="node">
<title>Node9</title>
<g id="a_Node000009"><a xlink:title=" ">
<polygon fill="#e0e0e0" stroke="#999999" points="124,-74 68,-74 68,-55 124,-55 124,-74"/>
<text text-anchor="middle" x="96" y="-62" font-family="Helvetica,sans-Serif" font-size="10.00">optional</text>
</a>
</g>
</g>
<!-- Node3&#45;&gt;Node9 -->
<g id="edge8_Node000003_Node000009" class="edge">
<title>Node3&#45;&gt;Node9</title>
<g id="a_edge8_Node000003_Node000009"><a xlink:title=" ">
<path fill="none" stroke="#63b8ff" d="M183.8,-115.37C166.99,-105.82 139.68,-90.31 119.98,-79.12"/>
<polygon fill="#63b8ff" stroke="#63b8ff" points="121.68,-76.06 111.26,-74.17 118.23,-82.15 121.68,-76.06"/>
</a>
</g>
</g>
<!-- Node6 -->
<g id="Node000006" class="node">
<title>Node6</title>
<g id="a_Node000006"><a xlink:href="types_8h.html" target="_top" xlink:title=" ">
<polygon fill="white" stroke="#666666" points="465.5,-19 412.5,-19 412.5,0 465.5,0 465.5,-19"/>
<text text-anchor="middle" x="439" y="-7" font-family="Helvetica,sans-Serif" font-size="10.00">types.h</text>
</a>
</g>
</g>
<!-- Node5&#45;&gt;Node6 -->
<g id="edge5_Node000005_Node000006" class="edge">
<title>Node5&#45;&gt;Node6</title>
<g id="a_edge5_Node000005_Node000006"><a xlink:title=" ">
<path fill="none" stroke="#63b8ff" d="M236.72,-54.98C282.39,-44.94 357.75,-28.37 402.45,-18.54"/>
<polygon fill="#63b8ff" stroke="#63b8ff" points="403.3,-21.94 412.31,-16.37 401.79,-15.1 403.3,-21.94"/>
</a>
</g>
</g>
<!-- Node7 -->
<g id="Node000007" class="node">
<title>Node7</title>
<g id="a_Node000007"><a xlink:title=" ">
<polygon fill="#e0e0e0" stroke="#999999" points="230,-19 166,-19 166,0 230,0 230,-19"/>
<text text-anchor="middle" x="198" y="-7" font-family="Helvetica,sans-Serif" font-size="10.00">algorithm</text>
</a>
</g>
</g>
<!-- Node5&#45;&gt;Node7 -->
<g id="edge6_Node000005_Node000007" class="edge">
<title>Node5&#45;&gt;Node7</title>
<g id="a_edge6_Node000005_Node000007"><a xlink:title=" ">
<path fill="none" stroke="#63b8ff" d="M198,-54.75C198,-47.8 198,-37.85 198,-29.13"/>
<polygon fill="#63b8ff" stroke="#63b8ff" points="201.5,-29.09 198,-19.09 194.5,-29.09 201.5,-29.09"/>
</a>
</g>
</g>
<!-- Node11&#45;&gt;Node4 -->
<g id="edge11_Node000011_Node000004" class="edge">
<title>Node11&#45;&gt;Node4</title>
<g id="a_edge11_Node000011_Node000004"><a xlink:title=" ">
<path fill="none" stroke="#63b8ff" d="M321.24,-109.84C321.37,-102.21 321.53,-92.7 321.68,-84.45"/>
<polygon fill="#63b8ff" stroke="#63b8ff" points="325.18,-84.32 321.85,-74.27 318.18,-84.2 325.18,-84.32"/>
</a>
</g>
</g>
<!-- Node11&#45;&gt;Node5 -->
<g id="edge15_Node000011_Node000005" class="edge">
<title>Node11&#45;&gt;Node5</title>
<g id="a_edge15_Node000011_Node000005"><a xlink:title=" ">
<path fill="none" stroke="#63b8ff" d="M291.54,-109.99C271.38,-100.4 244.86,-87.79 225.2,-78.44"/>
<polygon fill="#63b8ff" stroke="#63b8ff" points="226.7,-75.27 216.16,-74.14 223.69,-81.6 226.7,-75.27"/>
</a>
</g>
</g>
<!-- Node12 -->
<g id="Node000012" class="node">
<title>Node12</title>
<g id="a_Node000012"><a xlink:href="node_8h.html" target="_top" xlink:title=" ">
<polygon fill="white" stroke="#666666" points="488,-74 390,-74 390,-55 488,-55 488,-74"/>
<text text-anchor="middle" x="439" y="-62" font-family="Helvetica,sans-Serif" font-size="10.00">../domain/node.h</text>
</a>
</g>
</g>
<!-- Node11&#45;&gt;Node12 -->
<g id="edge12_Node000011_Node000012" class="edge">
<title>Node11&#45;&gt;Node12</title>
<g id="a_edge12_Node000011_Node000012"><a xlink:title=" ">
<path fill="none" stroke="#63b8ff" d="M349.26,-109.99C368.42,-100.49 393.58,-88.02 412.39,-78.69"/>
<polygon fill="#63b8ff" stroke="#63b8ff" points="414.17,-81.72 421.57,-74.14 411.06,-75.45 414.17,-81.72"/>
</a>
</g>
</g>
<!-- Node12&#45;&gt;Node6 -->
<g id="edge13_Node000012_Node000006" class="edge">
<title>Node12&#45;&gt;Node6</title>
<g id="a_edge13_Node000012_Node000006"><a xlink:title=" ">
<path fill="none" stroke="#63b8ff" d="M439,-54.75C439,-47.8 439,-37.85 439,-29.13"/>
<polygon fill="#63b8ff" stroke="#63b8ff" points="442.5,-29.09 439,-19.09 435.5,-29.09 442.5,-29.09"/>
</a>
</g>
</g>
<!-- Node13 -->
<g id="Node000013" class="node">
<title>Node13</title>
<g id="a_Node000013"><a xlink:title=" ">
<polygon fill="#e0e0e0" stroke="#999999" points="552,-19 508,-19 508,0 552,0 552,-19"/>
<text text-anchor="middle" x="530" y="-7" font-family="Helvetica,sans-Serif" font-size="10.00">string</text>
</a>
</g>
</g>
<!-- Node12&#45;&gt;Node13 -->
<g id="edge14_Node000012_Node000013" class="edge">
<title>Node12&#45;&gt;Node13</title>
<g id="a_edge14_Node000012_Node000013"><a xlink:title=" ">
<path fill="none" stroke="#63b8ff" d="M453.62,-54.98C467.86,-46.69 489.75,-33.94 506.45,-24.22"/>
<polygon fill="#63b8ff" stroke="#63b8ff" points="508.23,-27.23 515.11,-19.17 504.71,-21.18 508.23,-27.23"/>
</a>
</g>
</g>
<!-- Node14&#45;&gt;Node3 -->
<g id="edge17_Node000014_Node000003" class="edge">
<title>Node14&#45;&gt;Node3</title>
<g id="a_edge17_Node000014_Node000003"><a xlink:title=" ">
<path fill="none" stroke="#63b8ff" d="M471.28,-177.56C419.9,-169.4 333.11,-155.05 259,-140 254.21,-139.03 249.21,-137.95 244.24,-136.85"/>
<polygon fill="#63b8ff" stroke="#63b8ff" points="244.67,-133.36 234.14,-134.56 243.12,-140.18 244.67,-133.36"/>
</a>
</g>
</g>
<!-- Node14&#45;&gt;Node6 -->
<g id="edge18_Node000014_Node000006" class="edge">
<title>Node14&#45;&gt;Node6</title>
<g id="a_edge18_Node000014_Node000006"><a xlink:title=" ">
<path fill="none" stroke="#63b8ff" d="M516.85,-175.91C518.58,-154.05 520.59,-95.17 497,-55 489.47,-42.18 476.69,-31.78 465.04,-24.26"/>
<polygon fill="#63b8ff" stroke="#63b8ff" points="466.82,-21.25 456.45,-19.08 463.21,-27.24 466.82,-21.25"/>
</a>
</g>
</g>
<!-- Node14&#45;&gt;Node13 -->
<g id="edge20_Node000014_Node000013" class="edge">
<title>Node14&#45;&gt;Node13</title>
<g id="a_edge20_Node000014_Node000013"><a xlink:title=" ">
<path fill="none" stroke="#63b8ff" d="M519.6,-175.82C523.06,-166.99 528.03,-152.81 530,-140 536.01,-100.88 533.75,-54.33 531.76,-29.06"/>
<polygon fill="#63b8ff" stroke="#63b8ff" points="535.24,-28.71 530.89,-19.05 528.27,-29.32 535.24,-28.71"/>
</a>
</g>
</g>
<!-- Node15 -->
<g id="Node000015" class="node">
<title>Node15</title>
<g id="a_Node000015"><a xlink:title=" ">
<polygon fill="#e0e0e0" stroke="#999999" points="640,-134.5 582,-134.5 582,-115.5 640,-115.5 640,-134.5"/>
<text text-anchor="middle" x="611" y="-122.5" font-family="Helvetica,sans-Serif" font-size="10.00">memory</text>
</a>
</g>
</g>
<!-- Node14&#45;&gt;Node15 -->
<g id="edge19_Node000014_Node000015" class="edge">
<title>Node14&#45;&gt;Node15</title>
<g id="a_edge19_Node000014_Node000015"><a xlink:title=" ">
<path fill="none" stroke="#63b8ff" d="M530.02,-175.87C545.31,-166.45 570.03,-151.23 588.14,-140.08"/>
<polygon fill="#63b8ff" stroke="#63b8ff" points="590.25,-142.89 596.92,-134.67 586.57,-136.93 590.25,-142.89"/>
</a>
</g>
</g>
</g>
</svg>
